<?xml version="1.0" encoding="UTF-8" standalone="no"?>
<!-- Created with Inkscape (http://www.inkscape.org/) -->

<svg
   xmlns:dc="http://purl.org/dc/elements/1.1/"
   xmlns:cc="http://creativecommons.org/ns#"
   xmlns:rdf="http://www.w3.org/1999/02/22-rdf-syntax-ns#"
   xmlns:svg="http://www.w3.org/2000/svg"
   xmlns="http://www.w3.org/2000/svg"
   xmlns:sodipodi="http://sodipodi.sourceforge.net/DTD/sodipodi-0.dtd"
   xmlns:inkscape="http://www.inkscape.org/namespaces/inkscape"
   width="1000"
   height="1000"
   id="svg2"
   version="1.1"
   inkscape:version="0.48.4 r9939"
   sodipodi:docname="bus.svg">
  <defs
     id="defs4" />
  <sodipodi:namedview
     id="base"
     pagecolor="#ffffff"
     bordercolor="#666666"
     borderopacity="1.0"
     inkscape:pageopacity="0.0"
     inkscape:pageshadow="2"
     inkscape:zoom="0.49497475"
     inkscape:cx="148.61329"
     inkscape:cy="461.93162"
     inkscape:document-units="px"
     inkscape:current-layer="layer1"
     showgrid="false"
     inkscape:snap-bbox="true"
     inkscape:snap-page="false"
     inkscape:window-width="1366"
     inkscape:window-height="715"
     inkscape:window-x="-8"
     inkscape:window-y="-8"
     inkscape:window-maximized="1"
     inkscape:snap-bbox-edge-midpoints="true" />
  <metadata
     id="metadata7">
    <rdf:RDF>
      <cc:Work
         rdf:about="">
        <dc:format>image/svg+xml</dc:format>
        <dc:type
           rdf:resource="http://purl.org/dc/dcmitype/StillImage" />
      </cc:Work>
    </rdf:RDF>
  </metadata>
  <g
     inkscape:label="Layer 1"
     inkscape:groupmode="layer"
     id="layer1"
     transform="translate(0,-52.362183)">
    <path
       style="opacity:0.59999999999999998;fill:#333333;fill-opacity:1;stroke:#000000;stroke-width:5;stroke-linecap:butt;stroke-linejoin:miter;stroke-miterlimit:4;stroke-opacity:1;stroke-dasharray:none"
       d="M 420.34375 27.375 C 180.68634 27.375 102.375 186.26508 102.375 426.625 L 102.375 822.625 L 897.625 822.625 L 897.625 426.625 C 897.625 184.43688 817.96831 27.375 578.125 27.375 L 420.34375 27.375 z M 430.40625 152.59375 L 568.25 152.59375 C 777.81706 152.59375 847.40625 254.78195 847.40625 375.03125 L 847.40625 547.40625 L 152.59375 547.40625 L 152.59375 375.03125 C 152.59375 255.68968 221.00163 152.59375 430.40625 152.59375 z M 235 632.5 C 266.7592 632.5 292.5 658.2408 292.5 690 C 292.5 721.7592 266.7592 747.5 235 747.5 C 203.2408 747.5 177.5 721.7592 177.5 690 C 177.5 658.2408 203.2408 632.5 235 632.5 z M 765 632.5 C 796.7592 632.5 822.5 658.2408 822.5 690 C 822.5 721.7592 796.7592 747.5 765 747.5 C 733.2408 747.5 707.5 721.7592 707.5 690 C 707.5 658.2408 733.2408 632.5 765 632.5 z "
       transform="translate(0,52.362183)"
       id="path3828" />
    <path
       style="opacity:0.59999999999999998;fill:#333333;fill-opacity:1;stroke:#000000;stroke-width:5;stroke-linecap:butt;stroke-linejoin:miter;stroke-miterlimit:4;stroke-opacity:1;stroke-dasharray:none"
       d="m 177.51506,904.87722 119.96988,0 0,68.3005 c 0,68.94968 -119.96988,68.83528 -119.96988,0 z"
       id="path3890"
       inkscape:connector-curvature="0"
       sodipodi:nodetypes="ccccc" />
    <path
       style="opacity:0.59999999999999998;fill:#333333;fill-opacity:1;stroke:#000000;stroke-width:5;stroke-linecap:butt;stroke-linejoin:miter;stroke-miterlimit:4;stroke-opacity:1;stroke-dasharray:none"
       d="m 702.51506,904.87723 119.96988,0 0,68.30053 c 0,68.94964 -119.96988,68.83524 -119.96988,0 z"
       id="path3890-4"
       inkscape:connector-curvature="0"
       sodipodi:nodetypes="ccccc" />
  </g>
</svg>
