<?xml version="1.0" encoding="UTF-8" standalone="no"?>
<!-- Created with Inkscape (http://www.inkscape.org/) -->

<svg
   xmlns:dc="http://purl.org/dc/elements/1.1/"
   xmlns:cc="http://creativecommons.org/ns#"
   xmlns:rdf="http://www.w3.org/1999/02/22-rdf-syntax-ns#"
   xmlns:svg="http://www.w3.org/2000/svg"
   xmlns="http://www.w3.org/2000/svg"
   xmlns:sodipodi="http://sodipodi.sourceforge.net/DTD/sodipodi-0.dtd"
   xmlns:inkscape="http://www.inkscape.org/namespaces/inkscape"
   width="750"
   height="750"
   id="svg2"
   version="1.1"
   inkscape:version="0.48.4 r9939"
   sodipodi:docname="realtime_on.svg">
  <defs
     id="defs4" />
  <sodipodi:namedview
     id="base"
     pagecolor="#ffffff"
     bordercolor="#666666"
     borderopacity="1.0"
     inkscape:pageopacity="0.0"
     inkscape:pageshadow="2"
     inkscape:zoom="0.69999999"
     inkscape:cx="360.43916"
     inkscape:cy="659.68205"
     inkscape:document-units="px"
     inkscape:current-layer="layer1"
     showgrid="false"
     showguides="true"
     inkscape:snap-global="false"
     inkscape:window-width="1366"
     inkscape:window-height="715"
     inkscape:window-x="1912"
     inkscape:window-y="304"
     inkscape:window-maximized="1" />
  <metadata
     id="metadata7">
    <rdf:RDF>
      <cc:Work
         rdf:about="">
        <dc:format>image/svg+xml</dc:format>
        <dc:type
           rdf:resource="http://purl.org/dc/dcmitype/StillImage" />
        <dc:title />
      </cc:Work>
    </rdf:RDF>
  </metadata>
  <g
     inkscape:label="Layer 1"
     inkscape:groupmode="layer"
     id="layer1">
    <path
       sodipodi:type="arc"
       style="fill:#000000;fill-rule:evenodd;stroke:#000000;stroke-width:1px;stroke-linecap:butt;stroke-linejoin:miter;stroke-opacity:1"
       id="path2985"
       sodipodi:cx="375"
       sodipodi:cy="485.21933"
       sodipodi:rx="340"
       sodipodi:ry="340"
       d="m 715,485.21933 a 340,340 0 1 1 -680,0 340,340 0 1 1 680,0 z"
       transform="matrix(1.1013216,0,0,1.1013216,-37.995594,-159.38253)" />
    <path
       transform="matrix(0.97973683,0,0,0.97973682,6.8988703,-100.38723)"
       d="m 717.14285,485.21933 a 341.42856,341.42856 0 1 1 -682.857114,0 341.42856,341.42856 0 1 1 682.857114,0 z"
       sodipodi:ry="341.42856"
       sodipodi:rx="341.42856"
       sodipodi:cy="485.21933"
       sodipodi:cx="375.71429"
       id="path2987"
       style="fill:#ffffff;fill-rule:evenodd;stroke:#000000;stroke-width:1px;stroke-linecap:butt;stroke-linejoin:miter;stroke-opacity:1"
       sodipodi:type="arc" />
    <path
       sodipodi:type="arc"
       style="fill:#000000"
       id="path2991"
       sodipodi:cx="359.28571"
       sodipodi:cy="365.93362"
       sodipodi:rx="12.142858"
       sodipodi:ry="12.142858"
       d="m 371.42856,365.93362 a 12.142858,12.142858 0 1 1 -24.28571,0 12.142858,12.142858 0 1 1 24.28571,0 z"
       transform="matrix(1.2352941,0,0,1.2352941,-78.823504,-67.035649)" />
    <rect
       style="fill:#000000"
       id="rect3001"
       width="40"
       height="275"
       x="350"
       y="125"
       ry="20.06757"
       rx="17.333334" />
    <rect
       style="fill:#000000"
       id="rect3001-1"
       width="30"
       height="326.42856"
       x="194.40125"
       y="174.10516"
       ry="23.820465"
       rx="13"
       transform="matrix(0.93969262,-0.34202014,0.34202014,0.93969262,0,0)" />
  </g>
</svg>
