<?xml version="1.0" standalone="yes"?>

<svg version="1.1" viewBox="0.0 0.0 731.0 729.0" fill="none" stroke="none" stroke-linecap="square" stroke-miterlimit="10" xmlns="http://www.w3.org/2000/svg" xmlns:xlink="http://www.w3.org/1999/xlink"><clipPath id="p.0"><path d="m0 0l731.0 0l0 729.0l-731.0 0l0 -729.0z" clip-rule="nonzero"></path></clipPath><g clip-path="url(#p.0)"><path fill="#000000" fill-opacity="0.0" d="m0 0l731.3123 0l0 729.0341l-731.3123 0z" fill-rule="nonzero"></path><path fill="#cfe2f3" d="m-363.22662 -110.68615l119.81102 0l0 59.055122l-119.81102 0z" fill-rule="nonzero"></path><path stroke="#000000" stroke-width="2.0" stroke-linejoin="round" stroke-linecap="butt" d="m-363.22662 -110.68615l119.81102 0l0 59.055122l-119.81102 0z" fill-rule="nonzero"></path><path fill="#000000" d="m910.3634 1424.425l21.285706 -21.285767l31.448181 0l21.285706 21.285767l0 30.103271l-21.285706 21.285645l-31.448181 0l-21.285706 -21.285645z" fill-rule="nonzero"></path><path stroke="#000000" stroke-width="2.0" stroke-linejoin="round" stroke-linecap="butt" d="m910.3634 1424.425l21.285706 -21.285767l31.448181 0l21.285706 21.285767l0 30.103271l-21.285706 21.285645l-31.448181 0l-21.285706 -21.285645z" fill-rule="nonzero"></path><path fill="#000000" d="m910.3621 1183.7262l105.854675 -103.9314l52.179688 51.231567l-105.85474 103.93152z" fill-rule="nonzero"></path><path stroke="#000000" stroke-width="2.0" stroke-linejoin="round" stroke-linecap="butt" d="m910.3621 1183.7262l105.854675 -103.9314l52.179688 51.231567l-105.85474 103.93152z" fill-rule="nonzero"></path><path fill="#000000" d="m1001.55194 1094.3864l105.854675 -103.9314l52.179688 51.23169l-105.85474 103.9314z" fill-rule="nonzero"></path><path stroke="#000000" stroke-width="2.0" stroke-linejoin="round" stroke-linecap="butt" d="m1001.55194 1094.3864l105.854675 -103.9314l52.179688 51.23169l-105.85474 103.9314z" fill-rule="nonzero"></path><path fill="#000000" d="m1053.5316 935.5883l-105.85474 -103.93146l52.179688 -51.23163l105.854614 103.93146z" fill-rule="nonzero"></path><path stroke="#000000" stroke-width="2.0" stroke-linejoin="round" stroke-linecap="butt" d="m1053.5316 935.5883l-105.85474 -103.93146l52.179688 -51.23163l105.854614 103.93146z" fill-rule="nonzero"></path><path fill="#000000" d="m770.6917 969.3338l-14.006409 -13.751953l0 -37.634216l86.41388 -84.84387l0 0l52.337097 51.38617l0 0l-86.41394 84.84387z" fill-rule="nonzero"></path><path stroke="#000000" stroke-width="2.0" stroke-linejoin="round" stroke-linecap="butt" d="m770.6917 969.3338l-14.006409 -13.751953l0 -37.634216l86.41388 -84.84387l0 0l52.337097 51.38617l0 0l-86.41394 84.84387z" fill-rule="nonzero"></path><path fill="#000000" d="m1000.69403 781.36664l-33.495728 -32.862488l-37.754395 0.007080078l-87.768005 86.1734l52.376465 51.38617z" fill-rule="nonzero"></path><path stroke="#000000" stroke-width="2.0" stroke-linejoin="round" stroke-linecap="butt" d="m1000.69403 781.36664l-33.495728 -32.862488l-37.754395 0.007080078l-87.768005 86.1734l52.376465 51.38617z" fill-rule="nonzero"></path><path fill="#000000" d="m1159.8171 1040.1101l33.47058 -32.887146l-0.006958008 -37.068115l-87.76831 -86.173645l-52.337036 51.424805z" fill-rule="nonzero"></path><path stroke="#000000" stroke-width="2.0" stroke-linejoin="round" stroke-linecap="butt" d="m1159.8171 1040.1101l33.47058 -32.887146l-0.006958008 -37.068115l-87.76831 -86.173645l-52.337036 51.424805z" fill-rule="nonzero"></path><path fill="#000000" d="m957.2792 1330.4646l-19.809082 0l-27.105225 -27.105225l0 -119.48059l0 0l74.01953 0l0 0l0 119.48059z" fill-rule="nonzero"></path><path stroke="#000000" stroke-width="2.0" stroke-linejoin="round" stroke-linecap="butt" d="m957.2792 1330.4646l-19.809082 0l-27.105225 -27.105225l0 -119.48059l0 0l74.01953 0l0 0l0 119.48059z" fill-rule="nonzero"></path><path fill="#000000" fill-opacity="0.0" d="m1370.2034 978.96826l185.89612 -185.89606l250.63306 0l185.89612 185.89606l0 247.86133l-185.89612 185.89612l-250.63306 0l-185.89612 -185.89612z" fill-rule="nonzero"></path><path stroke="#000000" stroke-width="24.0" stroke-linejoin="round" stroke-linecap="butt" d="m1370.2034 978.96826l185.89612 -185.89606l250.63306 0l185.89612 185.89606l0 247.86133l-185.89612 185.89612l-250.63306 0l-185.89612 -185.89612z" fill-rule="nonzero"></path><path fill="#000000" fill-opacity="0.0" d="m1681.416 729.03546l0 54.740112" fill-rule="nonzero"></path><path stroke="#000000" stroke-width="24.0" stroke-linejoin="round" stroke-linecap="butt" d="m1681.416 729.03546l0 54.740112" fill-rule="nonzero"></path><path fill="#000000" fill-opacity="0.0" d="m1681.416 1422.0223l0 54.740112" fill-rule="nonzero"></path><path stroke="#000000" stroke-width="24.0" stroke-linejoin="round" stroke-linecap="butt" d="m1681.416 1422.0223l0 54.740112" fill-rule="nonzero"></path><path fill="#000000" fill-opacity="0.0" d="m2053.2297 1102.8989l-54.740234 0" fill-rule="nonzero"></path><path stroke="#000000" stroke-width="24.0" stroke-linejoin="round" stroke-linecap="butt" d="m2053.2297 1102.8989l-54.740234 0" fill-rule="nonzero"></path><path fill="#000000" fill-opacity="0.0" d="m1363.8254 1102.8989l-54.740112 0" fill-rule="nonzero"></path><path stroke="#000000" stroke-width="24.0" stroke-linejoin="round" stroke-linecap="butt" d="m1363.8254 1102.8989l-54.740112 0" fill-rule="nonzero"></path><path fill="#000000" d="m1578.968 1015.674l14.964478 -14.9646l87.224976 87.224915l87.224976 -87.224915l14.9646 14.9646l-87.224976 87.224915l87.224976 87.224976l-14.9646 14.9646l-87.224976 -87.224976l-87.224976 87.224976l-14.964478 -14.9646l87.22485 -87.224976z" fill-rule="nonzero"></path><path stroke="#000000" stroke-width="2.0" stroke-linejoin="round" stroke-linecap="butt" d="m1578.968 1015.674l14.964478 -14.9646l87.224976 87.224915l87.224976 -87.224915l14.9646 14.9646l-87.224976 87.224915l87.224976 87.224976l-14.9646 14.9646l-87.224976 -87.224976l-87.224976 87.224976l-14.964478 -14.9646l87.22485 -87.224976z" fill-rule="nonzero"></path><path fill="#000000" d="m3327.3792 1251.8398l0 241.54333l-59.05493 0l0 -241.54333z" fill-rule="nonzero"></path><path stroke="#000000" stroke-width="2.0" stroke-linejoin="round" stroke-linecap="butt" d="m3327.3792 1251.8398l0 241.54333l-59.05493 0l0 -241.54333z" fill-rule="nonzero"></path><path fill="#000000" d="m3148.5132 1371.6511l0 137.92126l-59.055176 0l0 -137.92126z" fill-rule="nonzero"></path><path stroke="#000000" stroke-width="2.0" stroke-linejoin="round" stroke-linecap="butt" d="m3148.5132 1371.6511l0 137.92126l-59.055176 0l0 -137.92126z" fill-rule="nonzero"></path><path fill="#000000" d="m3506.2454 1132.0283l0 376.34644l-59.055176 0l0 -376.34644z" fill-rule="nonzero"></path><path stroke="#000000" stroke-width="2.0" stroke-linejoin="round" stroke-linecap="butt" d="m3506.2454 1132.0283l0 376.34644l-59.055176 0l0 -376.34644z" fill-rule="nonzero"></path><path fill="#000000" d="m3685.1116 1012.22046l0 490.8346l-59.055176 0l0 -490.8346z" fill-rule="nonzero"></path><path stroke="#000000" stroke-width="2.0" stroke-linejoin="round" stroke-linecap="butt" d="m3685.1116 1012.22046l0 490.8346l-59.055176 0l0 -490.8346z" fill-rule="nonzero"></path><path fill="#000000" d="m3106.762 889.4063l41.846436 -41.846497l93.80884 93.8089l93.80908 -93.8089l41.846436 41.846497l-93.80908 93.8089l93.80908 93.80896l-41.846436 41.846436l-93.80908 -93.80896l-93.80884 93.80896l-41.846436 -41.846436l93.80884 -93.80896z" fill-rule="nonzero"></path><path stroke="#000000" stroke-width="2.0" stroke-linejoin="round" stroke-linecap="butt" d="m3106.762 889.4063l41.846436 -41.846497l93.80884 93.8089l93.80908 -93.8089l41.846436 41.846497l-93.80908 93.8089l93.80908 93.80896l-41.846436 41.846436l-93.80908 -93.80896l-93.80884 93.80896l-41.846436 -41.846436l93.80884 -93.80896z" fill-rule="nonzero"></path><path fill="#ffffff" d="m-192.36745 -90.839355l5.470352 -5.470352l7.73645 0l5.470352 5.470352l0 7.736458l-5.470352 5.470352l-7.73645 0l-5.470352 -5.470352z" fill-rule="nonzero"></path><path stroke="#000000" stroke-width="2.0" stroke-linejoin="round" stroke-linecap="butt" d="m-192.36745 -90.839355l5.470352 -5.470352l7.73645 0l5.470352 5.470352l0 7.736458l-5.470352 5.470352l-7.73645 0l-5.470352 -5.470352z" fill-rule="nonzero"></path><path fill="#cfe2f3" d="m-431.10852 -146.87775l0 119.81102l-59.055115 0l0 -119.81102z" fill-rule="nonzero"></path><path stroke="#000000" stroke-width="2.0" stroke-linejoin="round" stroke-linecap="butt" d="m-431.10852 -146.87775l0 119.81102l-59.055115 0l0 -119.81102z" fill-rule="nonzero"></path><path fill="#000000" d="m3924.2979 932.4055l42.351807 -40.11548l66.43555 0l51.939697 46.15747l0.7927246 -200.0l-60.624756 0l-102.1416 99.25195l0.8293457 95.12073z" fill-rule="nonzero"></path><path stroke="#000000" stroke-width="2.0" stroke-linejoin="round" stroke-linecap="butt" d="m3924.2979 932.4055l42.351807 -40.11548l66.43555 0l51.939697 46.15747l0.7927246 -200.0l-60.624756 0l-102.1416 99.25195l0.8293457 95.12073z" fill-rule="nonzero"></path><path fill="#000000" d="m4247.7573 934.0591l-44.427734 -42.595825l-68.51221 0l-49.543213 47.04724l-0.9580078 -200.06299l64.204834 0l98.56445 99.25195l0.671875 95.944885z" fill-rule="nonzero"></path><path stroke="#000000" stroke-width="2.0" stroke-linejoin="round" stroke-linecap="butt" d="m4247.7573 934.0591l-44.427734 -42.595825l-68.51221 0l-49.543213 47.04724l-0.9580078 -200.06299l64.204834 0l98.56445 99.25195l0.671875 95.944885z" fill-rule="nonzero"></path><path fill="#000000" fill-opacity="0.0" d="m4220.4956 892.4156l73.07959 -72.786194l72.25098 71.960205" fill-rule="nonzero"></path><path stroke="#000000" stroke-width="24.0" stroke-linejoin="round" stroke-linecap="butt" d="m4220.4956 892.4156l73.07959 -72.786194l72.25098 71.960205" fill-rule="nonzero"></path><path fill="#000000" fill-opacity="0.0" d="m4220.4956 1089.2435l73.07959 -72.78613l72.25098 71.960205" fill-rule="nonzero"></path><path stroke="#000000" stroke-width="24.0" stroke-linejoin="round" stroke-linecap="butt" d="m4220.4956 1089.2435l73.07959 -72.78613l72.25098 71.960205" fill-rule="nonzero"></path><path fill="#000000" fill-opacity="0.0" d="m4220.4956 1286.0715l73.07959 -72.78613l72.25098 71.960205" fill-rule="nonzero"></path><path stroke="#000000" stroke-width="24.0" stroke-linejoin="round" stroke-linecap="butt" d="m4220.4956 1286.0715l73.07959 -72.78613l72.25098 71.960205" fill-rule="nonzero"></path><path fill="#000000" fill-opacity="0.0" d="m3798.035 892.4156l73.079834 -72.786194l72.25073 71.960205" fill-rule="nonzero"></path><path stroke="#000000" stroke-width="24.0" stroke-linejoin="round" stroke-linecap="butt" d="m3798.035 892.4156l73.079834 -72.786194l72.25073 71.960205" fill-rule="nonzero"></path><path fill="#000000" fill-opacity="0.0" d="m3798.035 1089.2435l73.079834 -72.78613l72.25073 71.960205" fill-rule="nonzero"></path><path stroke="#000000" stroke-width="24.0" stroke-linejoin="round" stroke-linecap="butt" d="m3798.035 1089.2435l73.079834 -72.78613l72.25073 71.960205" fill-rule="nonzero"></path><path fill="#000000" fill-opacity="0.0" d="m3798.035 1286.0715l73.079834 -72.78613l72.25073 71.960205" fill-rule="nonzero"></path><path stroke="#000000" stroke-width="24.0" stroke-linejoin="round" stroke-linecap="butt" d="m3798.035 1286.0715l73.079834 -72.78613l72.25073 71.960205" fill-rule="nonzero"></path><path fill="#000000" d="m4091.3918 951.2231l43.6521 -43.6521l61.73535 0l43.651855 43.6521l0 357.01068l-43.651855 43.6521l-61.73535 0l-43.6521 -43.6521z" fill-rule="nonzero"></path><path stroke="#000000" stroke-width="2.0" stroke-linejoin="round" stroke-linecap="butt" d="m4091.3918 951.2231l43.6521 -43.6521l61.73535 0l43.651855 43.6521l0 357.01068l-43.651855 43.6521l-61.73535 0l-43.6521 -43.6521z" fill-rule="nonzero"></path><path fill="#000000" d="m3925.7444 951.2231l43.6521 -43.6521l61.735107 0l43.6521 43.6521l0 357.01068l-43.6521 43.6521l-61.735107 0l-43.6521 -43.6521z" fill-rule="nonzero"></path><path stroke="#000000" stroke-width="2.0" stroke-linejoin="round" stroke-linecap="butt" d="m3925.7444 951.2231l43.6521 -43.6521l61.735107 0l43.6521 43.6521l0 357.01068l-43.6521 43.6521l-61.735107 0l-43.6521 -43.6521z" fill-rule="nonzero"></path><path fill="#ffffff" d="m4008.568 814.84955l6.7802734 -6.7803345l9.683594 0l6.7802734 6.7803345l0 9.588989l-6.7802734 6.7803345l-9.683594 0l-6.7802734 -6.7803345z" fill-rule="nonzero"></path><path stroke="#000000" stroke-width="2.0" stroke-linejoin="round" stroke-linecap="butt" d="m4008.568 814.84955l6.7802734 -6.7803345l9.683594 0l6.7802734 6.7803345l0 9.588989l-6.7802734 6.7803345l-9.683594 0l-6.7802734 -6.7803345z" fill-rule="nonzero"></path><path fill="#ffffff" d="m4134.371 814.84955l6.7802734 -6.7803345l9.683105 0l6.7807617 6.7803345l0 9.588989l-6.7807617 6.7803345l-9.683105 0l-6.7802734 -6.7803345z" fill-rule="nonzero"></path><path stroke="#000000" stroke-width="2.0" stroke-linejoin="round" stroke-linecap="butt" d="m4134.371 814.84955l6.7802734 -6.7803345l9.683105 0l6.7807617 6.7803345l0 9.588989l-6.7807617 6.7803345l-9.683105 0l-6.7802734 -6.7803345z" fill-rule="nonzero"></path><path fill="#000000" d="m3978.2063 1362.9319l104.70288 104.422l105.052734 -104.62683l-64.57178 0l-39.965088 -39.8042l-39.961426 39.8042l-55.85132 0z" fill-rule="nonzero"></path><path stroke="#000000" stroke-width="2.0" stroke-linejoin="round" stroke-linecap="butt" d="m3978.2063 1362.9319l104.70288 104.422l105.052734 -104.62683l-64.57178 0l-39.965088 -39.8042l-39.961426 39.8042l-55.85132 0z" fill-rule="nonzero"></path><path fill="#000000" d="m331.60965 323.1802l7.3840027 90.15152l-16.882294 4.564575l19.804596 81.857086l-17.538757 6.54541l14.693878 130.74179l-59.707275 -116.751465l20.838654 -6.253662l-36.54721 -74.203705l25.35559 -10.403015l-38.71251 -77.970276z" fill-rule="nonzero"></path><path stroke="#000000" stroke-width="1.0" stroke-linejoin="round" stroke-linecap="butt" d="m331.60965 323.1802l7.3840027 90.15152l-16.882294 4.564575l19.804596 81.857086l-17.538757 6.54541l14.693878 130.74179l-59.707275 -116.751465l20.838654 -6.253662l-36.54721 -74.203705l25.35559 -10.403015l-38.71251 -77.970276z" fill-rule="nonzero"></path><path fill="#000000" d="m563.66425 322.25977l-10.477966 89.83362l16.715271 5.159912l-22.605957 81.10431l17.303223 7.1627197l-19.178406 130.13959l63.683838 -114.56311l-20.611145 -6.988098l39.07544 -72.86246l-24.982788 -11.294922l41.368958 -76.54999z" fill-rule="nonzero"></path><path stroke="#000000" stroke-width="1.0" stroke-linejoin="round" stroke-linecap="butt" d="m563.66425 322.25977l-10.477966 89.83362l16.715271 5.159912l-22.605957 81.10431l17.303223 7.1627197l-19.178406 130.13959l63.683838 -114.56311l-20.611145 -6.988098l39.07544 -72.86246l-24.982788 -11.294922l41.368958 -76.54999z" fill-rule="nonzero"></path><path fill="#ffffff" d="m12.996116 120.22683l50.916504 -50.916504l72.00872 0l50.916504 50.916504l0 74.69573l-50.916504 50.916504l-72.00872 0l-50.916504 -50.916504z" fill-rule="nonzero"></path><path stroke="#000000" stroke-width="24.0" stroke-linejoin="round" stroke-linecap="butt" d="m12.996116 120.22683l50.916504 -50.916504l72.00872 0l50.916504 50.916504l0 74.69573l-50.916504 50.916504l-72.00872 0l-50.916504 -50.916504z" fill-rule="nonzero"></path><path fill="#ffffff" d="m159.41692 111.07537l103.16991 -103.16989l145.90811 0l103.16989 103.16989l0 151.35269l-103.16989 103.16989l-145.90811 0l-103.16991 -103.16989z" fill-rule="nonzero"></path><path stroke="#000000" stroke-width="24.0" stroke-linejoin="round" stroke-linecap="butt" d="m159.41692 111.07537l103.16991 -103.16989l145.90811 0l103.16989 103.16989l0 151.35269l-103.16989 103.16989l-145.90811 0l-103.16991 -103.16989z" fill-rule="nonzero"></path><path fill="#ffffff" d="m488.98666 90.62152l39.73056 -39.73054l56.188965 0l39.73053 39.73054l0 58.28566l-39.73053 39.73053l-56.188965 0l-39.73056 -39.73053z" fill-rule="nonzero"></path><path stroke="#000000" stroke-width="24.0" stroke-linejoin="round" stroke-linecap="butt" d="m488.98666 90.62152l39.73056 -39.73054l56.188965 0l39.73053 39.73054l0 58.28566l-39.73053 39.73053l-56.188965 0l-39.73056 -39.73053z" fill-rule="nonzero"></path><path fill="#ffffff" d="m488.98666 193.27834l67.168 -67.16801l94.99243 0l67.16803 67.16801l0 98.537094l-67.16803 67.168l-94.99243 0l-67.168 -67.168z" fill-rule="nonzero"></path><path stroke="#000000" stroke-width="24.0" stroke-linejoin="round" stroke-linecap="butt" d="m488.98666 193.27834l67.168 -67.16801l94.99243 0l67.16803 67.16801l0 98.537094l-67.16803 67.168l-94.99243 0l-67.168 -67.168z" fill-rule="nonzero"></path><path fill="#000000" d="m12.996116 350.31836l6.193536 -6.193512l8.759214 0l6.1935368 6.193512l0 9.08609l-6.1935368 6.193512l-8.759214 0l-6.193536 -6.193512z" fill-rule="nonzero"></path><path stroke="#000000" stroke-width="2.0" stroke-linejoin="round" stroke-linecap="butt" d="m12.996116 350.31836l6.193536 -6.193512l8.759214 0l6.1935368 6.193512l0 9.08609l-6.1935368 6.193512l-8.759214 0l-6.193536 -6.193512z" fill-rule="nonzero"></path><path fill="#000000" d="m12.996116 528.0843l6.193536 -6.1934814l8.759214 0l6.1935368 6.1934814l0 9.086121l-6.1935368 6.1934814l-8.759214 0l-6.193536 -6.1934814z" fill-rule="nonzero"></path><path stroke="#000000" stroke-width="2.0" stroke-linejoin="round" stroke-linecap="butt" d="m12.996116 528.0843l6.193536 -6.1934814l8.759214 0l6.1935368 6.1934814l0 9.086121l-6.1935368 6.1934814l-8.759214 0l-6.193536 -6.1934814z" fill-rule="nonzero"></path><path fill="#000000" d="m12.996116 705.8503l6.193536 -6.1935425l8.759214 0l6.1935368 6.1935425l0 9.08606l-6.1935368 6.1935425l-8.759214 0l-6.193536 -6.1935425z" fill-rule="nonzero"></path><path stroke="#000000" stroke-width="2.0" stroke-linejoin="round" stroke-linecap="butt" d="m12.996116 705.8503l6.193536 -6.1935425l8.759214 0l6.1935368 6.1935425l0 9.08606l-6.1935368 6.1935425l-8.759214 0l-6.193536 -6.1935425z" fill-rule="nonzero"></path><path fill="#000000" d="m138.44447 445.46887l6.193527 -6.1935425l8.759216 0l6.1935425 6.1935425l0 9.08606l-6.1935425 6.1935425l-8.759216 0l-6.193527 -6.1935425z" fill-rule="nonzero"></path><path stroke="#000000" stroke-width="2.0" stroke-linejoin="round" stroke-linecap="butt" d="m138.44447 445.46887l6.193527 -6.1935425l8.759216 0l6.1935425 6.1935425l0 9.08606l-6.1935425 6.1935425l-8.759216 0l-6.193527 -6.1935425z" fill-rule="nonzero"></path><path fill="#000000" d="m138.44447 623.2348l6.193527 -6.1935425l8.759216 0l6.1935425 6.1935425l0 9.08606l-6.1935425 6.1935425l-8.759216 0l-6.193527 -6.1935425z" fill-rule="nonzero"></path><path stroke="#000000" stroke-width="2.0" stroke-linejoin="round" stroke-linecap="butt" d="m138.44447 623.2348l6.193527 -6.1935425l8.759216 0l6.1935425 6.1935425l0 9.08606l-6.1935425 6.1935425l-8.759216 0l-6.193527 -6.1935425z" fill-rule="nonzero"></path><path fill="#000000" d="m274.50162 705.8503l6.1935425 -6.1935425l8.759216 0l6.1935425 6.1935425l0 9.08606l-6.1935425 6.1935425l-8.759216 0l-6.1935425 -6.1935425z" fill-rule="nonzero"></path><path stroke="#000000" stroke-width="2.0" stroke-linejoin="round" stroke-linecap="butt" d="m274.50162 705.8503l6.1935425 -6.1935425l8.759216 0l6.1935425 6.1935425l0 9.08606l-6.1935425 6.1935425l-8.759216 0l-6.1935425 -6.1935425z" fill-rule="nonzero"></path><path fill="#000000" d="m459.1661 445.46887l6.1935425 -6.1935425l8.759216 0l6.1935425 6.1935425l0 9.08606l-6.1935425 6.1935425l-8.759216 0l-6.1935425 -6.1935425z" fill-rule="nonzero"></path><path stroke="#000000" stroke-width="2.0" stroke-linejoin="round" stroke-linecap="butt" d="m459.1661 445.46887l6.1935425 -6.1935425l8.759216 0l6.1935425 6.1935425l0 9.08606l-6.1935425 6.1935425l-8.759216 0l-6.1935425 -6.1935425z" fill-rule="nonzero"></path><path fill="#000000" d="m459.1661 623.2348l6.1935425 -6.1935425l8.759216 0l6.1935425 6.1935425l0 9.08606l-6.1935425 6.1935425l-8.759216 0l-6.1935425 -6.1935425z" fill-rule="nonzero"></path><path stroke="#000000" stroke-width="2.0" stroke-linejoin="round" stroke-linecap="butt" d="m459.1661 623.2348l6.1935425 -6.1935425l8.759216 0l6.1935425 6.1935425l0 9.08606l-6.1935425 6.1935425l-8.759216 0l-6.1935425 -6.1935425z" fill-rule="nonzero"></path><path fill="#000000" d="m630.91284 528.0843l6.1935425 -6.1934814l8.759216 0l6.1935425 6.1934814l0 9.086121l-6.1935425 6.1934814l-8.759216 0l-6.1935425 -6.1934814z" fill-rule="nonzero"></path><path stroke="#000000" stroke-width="2.0" stroke-linejoin="round" stroke-linecap="butt" d="m630.91284 528.0843l6.1935425 -6.1934814l8.759216 0l6.1935425 6.1934814l0 9.086121l-6.1935425 6.1934814l-8.759216 0l-6.1935425 -6.1934814z" fill-rule="nonzero"></path><path fill="#000000" d="m630.91284 705.8503l6.1935425 -6.1935425l8.759216 0l6.1935425 6.1935425l0 9.08606l-6.1935425 6.1935425l-8.759216 0l-6.1935425 -6.1935425z" fill-rule="nonzero"></path><path stroke="#000000" stroke-width="2.0" stroke-linejoin="round" stroke-linecap="butt" d="m630.91284 705.8503l6.1935425 -6.1935425l8.759216 0l6.1935425 6.1935425l0 9.08606l-6.1935425 6.1935425l-8.759216 0l-6.1935425 -6.1935425z" fill-rule="nonzero"></path><path fill="#ffffff" d="m146.87666 101.88453l81.313354 0l231.31053 -9.544624l77.09955 0l76.00006 17.049362l0.09210205 62.50325l-88.688965 115.054474l-113.9986 -0.12371826l-225.7476 -53.000854l-66.25301 0z" fill-rule="nonzero"></path><path fill="#000000" d="m2165.2769 1511.1981l345.82422 -750.3989l57.748047 0l340.14966 743.7218z" fill-rule="nonzero"></path><path stroke="#000000" stroke-width="2.0" stroke-linejoin="round" stroke-linecap="butt" d="m2165.2769 1511.1981l345.82422 -750.3989l57.748047 0l340.14966 743.7218z" fill-rule="nonzero"></path><path fill="#ffffff" d="m2528.2717 1380.4055l18.677002 0l0 77.44885l-18.677002 0z" fill-rule="nonzero"></path><path stroke="#000000" stroke-width="2.0" stroke-linejoin="round" stroke-linecap="butt" d="m2528.2717 1380.4055l18.677002 0l0 77.44885l-18.677002 0z" fill-rule="nonzero"></path><path fill="#ffffff" d="m2530.1929 1200.2441l14.834717 0l0 69.259766l-14.834717 0z" fill-rule="nonzero"></path><path stroke="#000000" stroke-width="2.0" stroke-linejoin="round" stroke-linecap="butt" d="m2530.1929 1200.2441l14.834717 0l0 69.259766l-14.834717 0z" fill-rule="nonzero"></path><path fill="#ffffff" d="m2532.1143 1059.6654l10.991943 0l0 59.055054l-10.991943 0z" fill-rule="nonzero"></path><path stroke="#000000" stroke-width="2.0" stroke-linejoin="round" stroke-linecap="butt" d="m2532.1143 1059.6654l10.991943 0l0 59.055054l-10.991943 0z" fill-rule="nonzero"></path><path fill="#ffffff" d="m2534.0354 960.88055l7.149658 0l0 43.874023l-7.149658 0z" fill-rule="nonzero"></path><path stroke="#000000" stroke-width="2.0" stroke-linejoin="round" stroke-linecap="butt" d="m2534.0354 960.88055l7.149658 0l0 43.874023l-7.149658 0z" fill-rule="nonzero"></path><path fill="#ffffff" d="m2535.1536 896.4344l3.9685059 0l0 31.685059l-3.9685059 0z" fill-rule="nonzero"></path><path stroke="#000000" stroke-width="2.0" stroke-linejoin="round" stroke-linecap="butt" d="m2535.1536 896.4344l3.9685059 0l0 31.685059l-3.9685059 0z" fill-rule="nonzero"></path><path fill="#ffffff" d="m2536.1458 843.56433l1.9841309 0l0 24.503906l-1.9841309 0z" fill-rule="nonzero"></path><path stroke="#000000" stroke-width="1.0" stroke-linejoin="round" stroke-linecap="butt" d="m2536.1458 843.56433l1.9841309 0l0 24.503906l-1.9841309 0z" fill-rule="nonzero"></path><path fill="#ffffff" d="m2536.5393 799.26117l1.1970215 0l0 15.937012l-1.1970215 0z" fill-rule="nonzero"></path><path stroke="#000000" stroke-width="1.0" stroke-linejoin="round" stroke-linecap="butt" d="m2536.5393 799.26117l1.1970215 0l0 15.937012l-1.1970215 0z" fill-rule="nonzero"></path><path fill="#000000" fill-opacity="0.0" d="m808.0 1112.0l384.0 0l0 48.0l-384.0 0z" fill-rule="nonzero"></path><path fill="#000000" d="m817.5781 1135.9825l1.65625 -0.265625q0.140625 1.0 0.765625 1.53125q0.640625 0.515625 1.78125 0.515625q1.15625 0 1.703125 -0.46875q0.5625 -0.46875 0.5625 -1.09375q0 -0.5625 -0.484375 -0.890625q-0.34375 -0.21875 -1.703125 -0.5625q-1.84375 -0.46875 -2.5625 -0.796875q-0.703125 -0.34375 -1.078125 -0.9375q-0.359375 -0.609375 -0.359375 -1.328125q0 -0.65625 0.296875 -1.21875q0.3125 -0.5625 0.828125 -0.9375q0.390625 -0.28125 1.0625 -0.484375q0.671875 -0.203125 1.4375 -0.203125q1.171875 0 2.046875 0.34375q0.875 0.328125 1.28125 0.90625q0.421875 0.5625 0.578125 1.515625l-1.625 0.21875q-0.109375 -0.75 -0.65625 -1.171875q-0.53125 -0.4375 -1.5 -0.4375q-1.15625 0 -1.640625 0.390625q-0.484375 0.375 -0.484375 0.875q0 0.328125 0.203125 0.59375q0.203125 0.265625 0.640625 0.4375q0.25 0.09375 1.46875 0.4375q1.765625 0.46875 2.46875 0.765625q0.703125 0.296875 1.09375 0.875q0.40625 0.578125 0.40625 1.4375q0 0.828125 -0.484375 1.578125q-0.484375 0.734375 -1.40625 1.140625q-0.921875 0.390625 -2.078125 0.390625q-1.921875 0 -2.9375 -0.796875q-1.0 -0.796875 -1.28125 -2.359375zm16.75 -0.234375l1.71875 0.21875q-0.40625 1.5 -1.515625 2.34375q-1.09375 0.828125 -2.8125 0.828125q-2.15625 0 -3.421875 -1.328125q-1.265625 -1.328125 -1.265625 -3.734375q0 -2.484375 1.265625 -3.859375q1.28125 -1.375 3.328125 -1.375q1.984375 0 3.234375 1.34375q1.25 1.34375 1.25 3.796875q0 0.140625 -0.015625 0.4375l-7.34375 0q0.09375 1.625 0.921875 2.484375q0.828125 0.859375 2.0625 0.859375q0.90625 0 1.546875 -0.46875q0.65625 -0.484375 1.046875 -1.546875zm-5.484375 -2.703125l5.5 0q-0.109375 -1.234375 -0.625 -1.859375q-0.796875 -0.96875 -2.078125 -0.96875q-1.140625 0 -1.9375 0.78125q-0.78125 0.765625 -0.859375 2.046875zm20.730896 4.65625q-0.9375 0.796875 -1.796875 1.125q-0.859375 0.3125 -1.84375 0.3125q-1.609375 0 -2.484375 -0.78125q-0.875 -0.796875 -0.875 -2.03125q0 -0.734375 0.328125 -1.328125q0.328125 -0.59375 0.859375 -0.953125q0.53125 -0.359375 1.203125 -0.546875q0.5 -0.140625 1.484375 -0.25q2.03125 -0.25 2.984375 -0.578125q0 -0.34375 0 -0.4375q0 -1.015625 -0.46875 -1.4375q-0.640625 -0.5625 -1.90625 -0.5625q-1.171875 0 -1.734375 0.40625q-0.5625 0.40625 -0.828125 1.46875l-1.640625 -0.234375q0.234375 -1.046875 0.734375 -1.6875q0.515625 -0.640625 1.46875 -0.984375q0.96875 -0.359375 2.25 -0.359375q1.265625 0 2.046875 0.296875q0.78125 0.296875 1.15625 0.75q0.375 0.453125 0.515625 1.140625q0.09375 0.421875 0.09375 1.53125l0 2.234375q0 2.328125 0.09375 2.953125q0.109375 0.609375 0.4375 1.171875l-1.75 0q-0.265625 -0.515625 -0.328125 -1.21875zm-0.140625 -3.71875q-0.90625 0.359375 -2.734375 0.625q-1.03125 0.140625 -1.453125 0.328125q-0.421875 0.1875 -0.65625 0.546875q-0.234375 0.359375 -0.234375 0.796875q0 0.671875 0.5 1.125q0.515625 0.4375 1.484375 0.4375q0.96875 0 1.71875 -0.421875q0.75 -0.4375 1.109375 -1.15625q0.265625 -0.578125 0.265625 -1.671875l0 -0.609375zm4.0788574 4.9375l0 -9.859375l1.5 0l0 1.40625q1.09375 -1.625 3.140625 -1.625q0.890625 0 1.640625 0.328125q0.75 0.3125 1.109375 0.84375q0.375 0.515625 0.53125 1.21875q0.09375 0.46875 0.09375 1.625l0 6.0625l-1.671875 0l0 -6.0q0 -1.015625 -0.203125 -1.515625q-0.1875 -0.515625 -0.6875 -0.8125q-0.5 -0.296875 -1.171875 -0.296875q-1.0625 0 -1.84375 0.671875q-0.765625 0.671875 -0.765625 2.578125l0 5.375l-1.671875 0zm16.766296 0l0 -1.25q-0.9375 1.46875 -2.75 1.46875q-1.171875 0 -2.171875 -0.640625q-0.984375 -0.65625 -1.53125 -1.8125q-0.53125 -1.171875 -0.53125 -2.6875q0 -1.46875 0.484375 -2.671875q0.5 -1.203125 1.46875 -1.84375q0.984375 -0.640625 2.203125 -0.640625q0.890625 0 1.578125 0.375q0.703125 0.375 1.140625 0.984375l0 -4.875l1.65625 0l0 13.59375l-1.546875 0zm-5.28125 -4.921875q0 1.890625 0.796875 2.828125q0.8125 0.9375 1.890625 0.9375q1.09375 0 1.859375 -0.890625q0.765625 -0.890625 0.765625 -2.734375q0 -2.015625 -0.78125 -2.953125q-0.78125 -0.953125 -1.921875 -0.953125q-1.109375 0 -1.859375 0.90625q-0.75 0.90625 -0.75 2.859375zm9.250732 4.921875l0 -9.859375l1.5 0l0 1.5q0.578125 -1.046875 1.0625 -1.375q0.484375 -0.34375 1.078125 -0.34375q0.84375 0 1.71875 0.546875l-0.578125 1.546875q-0.609375 -0.359375 -1.234375 -0.359375q-0.546875 0 -0.984375 0.328125q-0.421875 0.328125 -0.609375 0.90625q-0.28125 0.890625 -0.28125 1.953125l0 5.15625l-1.671875 0zm12.6658325 -1.21875q-0.9375 0.796875 -1.796875 1.125q-0.859375 0.3125 -1.84375 0.3125q-1.609375 0 -2.484375 -0.78125q-0.875 -0.796875 -0.875 -2.03125q0 -0.734375 0.328125 -1.328125q0.328125 -0.59375 0.859375 -0.953125q0.53125 -0.359375 1.203125 -0.546875q0.5 -0.140625 1.484375 -0.25q2.03125 -0.25 2.984375 -0.578125q0 -0.34375 0 -0.4375q0 -1.015625 -0.46875 -1.4375q-0.640625 -0.5625 -1.90625 -0.5625q-1.171875 0 -1.734375 0.40625q-0.5625 0.40625 -0.828125 1.46875l-1.640625 -0.234375q0.234375 -1.046875 0.734375 -1.6875q0.515625 -0.640625 1.46875 -0.984375q0.96875 -0.359375 2.25 -0.359375q1.265625 0 2.046875 0.296875q0.78125 0.296875 1.15625 0.75q0.375 0.453125 0.515625 1.140625q0.09375 0.421875 0.09375 1.53125l0 2.234375q0 2.328125 0.09375 2.953125q0.109375 0.609375 0.4375 1.171875l-1.75 0q-0.265625 -0.515625 -0.328125 -1.21875zm-0.140625 -3.71875q-0.90625 0.359375 -2.734375 0.625q-1.03125 0.140625 -1.453125 0.328125q-0.421875 0.1875 -0.65625 0.546875q-0.234375 0.359375 -0.234375 0.796875q0 0.671875 0.5 1.125q0.515625 0.4375 1.484375 0.4375q0.96875 0 1.71875 -0.421875q0.75 -0.4375 1.109375 -1.15625q0.265625 -0.578125 0.265625 -1.671875l0 -0.609375zm9.277771 -6.75l0 -1.90625l1.671875 0l0 1.90625l-1.671875 0zm0 11.6875l0 -9.859375l1.671875 0l0 9.859375l-1.671875 0zm3.4572754 -2.9375l1.65625 -0.265625q0.140625 1.0 0.765625 1.53125q0.640625 0.515625 1.78125 0.515625q1.15625 0 1.703125 -0.46875q0.5625 -0.46875 0.5625 -1.09375q0 -0.5625 -0.484375 -0.890625q-0.34375 -0.21875 -1.703125 -0.5625q-1.84375 -0.46875 -2.5625 -0.796875q-0.703125 -0.34375 -1.078125 -0.9375q-0.359375 -0.609375 -0.359375 -1.328125q0 -0.65625 0.296875 -1.21875q0.3125 -0.5625 0.828125 -0.9375q0.390625 -0.28125 1.0625 -0.484375q0.671875 -0.203125 1.4375 -0.203125q1.171875 0 2.046875 0.34375q0.875 0.328125 1.28125 0.90625q0.421875 0.5625 0.578125 1.515625l-1.625 0.21875q-0.109375 -0.75 -0.65625 -1.171875q-0.53125 -0.4375 -1.5 -0.4375q-1.15625 0 -1.640625 0.390625q-0.484375 0.375 -0.484375 0.875q0 0.328125 0.203125 0.59375q0.203125 0.265625 0.640625 0.4375q0.25 0.09375 1.46875 0.4375q1.765625 0.46875 2.46875 0.765625q0.703125 0.296875 1.09375 0.875q0.40625 0.578125 0.40625 1.4375q0 0.828125 -0.484375 1.578125q-0.484375 0.734375 -1.40625 1.140625q-0.921875 0.390625 -2.078125 0.390625q-1.921875 0 -2.9375 -0.796875q-1.0 -0.796875 -1.28125 -2.359375zm13.65625 1.4375l0.234375 1.484375q-0.703125 0.140625 -1.265625 0.140625q-0.90625 0 -1.40625 -0.28125q-0.5 -0.296875 -0.703125 -0.75q-0.203125 -0.46875 -0.203125 -1.984375l0 -5.65625l-1.234375 0l0 -1.3125l1.234375 0l0 -2.4375l1.65625 -1.0l0 3.4375l1.6875 0l0 1.3125l-1.6875 0l0 5.75q0 0.71875 0.078125 0.921875q0.09375 0.203125 0.296875 0.328125q0.203125 0.125 0.578125 0.125q0.265625 0 0.734375 -0.078125zm7.9645996 0.28125q-0.9375 0.796875 -1.796875 1.125q-0.859375 0.3125 -1.84375 0.3125q-1.609375 0 -2.484375 -0.78125q-0.875 -0.796875 -0.875 -2.03125q0 -0.734375 0.328125 -1.328125q0.328125 -0.59375 0.859375 -0.953125q0.53125 -0.359375 1.203125 -0.546875q0.5 -0.140625 1.484375 -0.25q2.03125 -0.25 2.984375 -0.578125q0 -0.34375 0 -0.4375q0 -1.015625 -0.46875 -1.4375q-0.640625 -0.5625 -1.90625 -0.5625q-1.171875 0 -1.734375 0.40625q-0.5625 0.40625 -0.828125 1.46875l-1.640625 -0.234375q0.234375 -1.046875 0.734375 -1.6875q0.515625 -0.640625 1.46875 -0.984375q0.96875 -0.359375 2.25 -0.359375q1.265625 0 2.046875 0.296875q0.78125 0.296875 1.15625 0.75q0.375 0.453125 0.515625 1.140625q0.09375 0.421875 0.09375 1.53125l0 2.234375q0 2.328125 0.09375 2.953125q0.109375 0.609375 0.4375 1.171875l-1.75 0q-0.265625 -0.515625 -0.328125 -1.21875zm-0.140625 -3.71875q-0.90625 0.359375 -2.734375 0.625q-1.03125 0.140625 -1.453125 0.328125q-0.421875 0.1875 -0.65625 0.546875q-0.234375 0.359375 -0.234375 0.796875q0 0.671875 0.5 1.125q0.515625 0.4375 1.484375 0.4375q0.96875 0 1.71875 -0.421875q0.75 -0.4375 1.109375 -1.15625q0.265625 -0.578125 0.265625 -1.671875l0 -0.609375zm-4.984375 -6.84375l0 -1.90625l1.75 0l0 1.90625l-1.75 0zm3.46875 0l0 -1.90625l1.734375 0l0 1.90625l-1.734375 0zm5.5632324 11.78125l0 -13.59375l1.671875 0l0 13.59375l-1.671875 0zm4.1447754 0l0 -13.59375l1.671875 0l0 13.59375l-1.671875 0zm10.926086 -3.171875l1.71875 0.21875q-0.40625 1.5 -1.515625 2.34375q-1.09375 0.828125 -2.8125 0.828125q-2.15625 0 -3.421875 -1.328125q-1.265625 -1.328125 -1.265625 -3.734375q0 -2.484375 1.265625 -3.859375q1.28125 -1.375 3.328125 -1.375q1.984375 0 3.234375 1.34375q1.25 1.34375 1.25 3.796875q0 0.140625 -0.015625 0.4375l-7.34375 0q0.09375 1.625 0.921875 2.484375q0.828125 0.859375 2.0625 0.859375q0.90625 0 1.546875 -0.46875q0.65625 -0.484375 1.046875 -1.546875zm-5.484375 -2.703125l5.5 0q-0.109375 -1.234375 -0.625 -1.859375q-0.796875 -0.96875 -2.078125 -0.96875q-1.140625 0 -1.9375 0.78125q-0.78125 0.765625 -0.859375 2.046875zm12.766357 4.375l0.234375 1.484375q-0.703125 0.140625 -1.265625 0.140625q-0.90625 0 -1.40625 -0.28125q-0.5 -0.296875 -0.703125 -0.75q-0.203125 -0.46875 -0.203125 -1.984375l0 -5.65625l-1.234375 0l0 -1.3125l1.234375 0l0 -2.4375l1.65625 -1.0l0 3.4375l1.6875 0l0 1.3125l-1.6875 0l0 5.75q0 0.71875 0.078125 0.921875q0.09375 0.203125 0.296875 0.328125q0.203125 0.125 0.578125 0.125q0.265625 0 0.734375 -0.078125z" fill-rule="nonzero"></path></g></svg>

