<?xml version="1.0" encoding="UTF-8" standalone="no"?>
<svg
   xmlns:dc="http://purl.org/dc/elements/1.1/"
   xmlns:cc="http://creativecommons.org/ns#"
   xmlns:rdf="http://www.w3.org/1999/02/22-rdf-syntax-ns#"
   xmlns:svg="http://www.w3.org/2000/svg"
   xmlns="http://www.w3.org/2000/svg"
   xmlns:sodipodi="http://sodipodi.sourceforge.net/DTD/sodipodi-0.dtd"
   xmlns:inkscape="http://www.inkscape.org/namespaces/inkscape"
   version="1.1"
   viewBox="0.0 0.0 731.0 729.0"
   fill="none"
   stroke="none"
   stroke-linecap="square"
   stroke-miterlimit="10"
   id="svg2"
   inkscape:version="0.48.4 r9939"
   width="100%"
   height="100%"
   sodipodi:docname="card_error_departures.svg">
  <metadata
     id="metadata257">
    <rdf:RDF>
      <cc:Work
         rdf:about="">
        <dc:format>image/svg+xml</dc:format>
        <dc:type
           rdf:resource="http://purl.org/dc/dcmitype/StillImage" />
      </cc:Work>
    </rdf:RDF>
  </metadata>
  <defs
     id="defs255" />
  <sodipodi:namedview
     pagecolor="#ffffff"
     bordercolor="#666666"
     borderopacity="1"
     objecttolerance="10"
     gridtolerance="10"
     guidetolerance="10"
     inkscape:pageopacity="0"
     inkscape:pageshadow="2"
     inkscape:window-width="1366"
     inkscape:window-height="715"
     id="namedview253"
     showgrid="false"
     inkscape:zoom="0.64746228"
     inkscape:cx="58.184094"
     inkscape:cy="422.47617"
     inkscape:window-x="-8"
     inkscape:window-y="-8"
     inkscape:window-maximized="1"
     inkscape:current-layer="g7" />
  <clipPath
     id="p.0">
    <path
       d="m0 0l731.0 0l0 729.0l-731.0 0l0 -729.0z"
       clip-rule="nonzero"
       id="path5" />
  </clipPath>
  <g
     clip-path="url(#p.0)"
     id="g7">
    <path
       d="m0 0l731.3123 0l0 729.0341l-731.3123 0z"
       id="path9"
       fill-rule="nonzero"
       fill-opacity="0.0"
       fill="#000000" />
    <path
       d="m-363.22662 -110.68615l119.81102 0l0 59.055122l-119.81102 0z"
       id="path11"
       fill-rule="nonzero"
       fill="#cfe2f3" />
    <path
       d="m-363.22662 -110.68615l119.81102 0l0 59.055122l-119.81102 0z"
       id="path13"
       stroke-linejoin="round"
       stroke-linecap="butt"
       stroke-width="2.0"
       stroke="#000000"
       fill-rule="nonzero" />
    <path
       d="m910.3634 1424.425l21.285706 -21.285767l31.448181 0l21.285706 21.285767l0 30.103271l-21.285706 21.285645l-31.448181 0l-21.285706 -21.285645z"
       id="path15"
       fill-rule="nonzero"
       fill="#000000" />
    <path
       d="m910.3634 1424.425l21.285706 -21.285767l31.448181 0l21.285706 21.285767l0 30.103271l-21.285706 21.285645l-31.448181 0l-21.285706 -21.285645z"
       id="path17"
       stroke-linejoin="round"
       stroke-linecap="butt"
       stroke-width="2.0"
       stroke="#000000"
       fill-rule="nonzero" />
    <path
       d="m910.3621 1183.7262l105.854675 -103.9314l52.179688 51.231567l-105.85474 103.93152z"
       id="path19"
       fill-rule="nonzero"
       fill="#000000" />
    <path
       d="m910.3621 1183.7262l105.854675 -103.9314l52.179688 51.231567l-105.85474 103.93152z"
       id="path21"
       stroke-linejoin="round"
       stroke-linecap="butt"
       stroke-width="2.0"
       stroke="#000000"
       fill-rule="nonzero" />
    <path
       d="m1001.55194 1094.3864l105.854675 -103.9314l52.179688 51.23169l-105.85474 103.9314z"
       id="path23"
       fill-rule="nonzero"
       fill="#000000" />
    <path
       d="m1001.55194 1094.3864l105.854675 -103.9314l52.179688 51.23169l-105.85474 103.9314z"
       id="path25"
       stroke-linejoin="round"
       stroke-linecap="butt"
       stroke-width="2.0"
       stroke="#000000"
       fill-rule="nonzero" />
    <path
       d="m1053.5316 935.5883l-105.85474 -103.93146l52.179688 -51.23163l105.854614 103.93146z"
       id="path27"
       fill-rule="nonzero"
       fill="#000000" />
    <path
       d="m1053.5316 935.5883l-105.85474 -103.93146l52.179688 -51.23163l105.854614 103.93146z"
       id="path29"
       stroke-linejoin="round"
       stroke-linecap="butt"
       stroke-width="2.0"
       stroke="#000000"
       fill-rule="nonzero" />
    <path
       d="m770.6917 969.3338l-14.006409 -13.751953l0 -37.634216l86.41388 -84.84387l0 0l52.337097 51.38617l0 0l-86.41394 84.84387z"
       id="path31"
       fill-rule="nonzero"
       fill="#000000" />
    <path
       d="m770.6917 969.3338l-14.006409 -13.751953l0 -37.634216l86.41388 -84.84387l0 0l52.337097 51.38617l0 0l-86.41394 84.84387z"
       id="path33"
       stroke-linejoin="round"
       stroke-linecap="butt"
       stroke-width="2.0"
       stroke="#000000"
       fill-rule="nonzero" />
    <path
       d="m1000.69403 781.36664l-33.495728 -32.862488l-37.754395 0.007080078l-87.768005 86.1734l52.376465 51.38617z"
       id="path35"
       fill-rule="nonzero"
       fill="#000000" />
    <path
       d="m1000.69403 781.36664l-33.495728 -32.862488l-37.754395 0.007080078l-87.768005 86.1734l52.376465 51.38617z"
       id="path37"
       stroke-linejoin="round"
       stroke-linecap="butt"
       stroke-width="2.0"
       stroke="#000000"
       fill-rule="nonzero" />
    <path
       d="m1159.8171 1040.1101l33.47058 -32.887146l-0.006958008 -37.068115l-87.76831 -86.173645l-52.337036 51.424805z"
       id="path39"
       fill-rule="nonzero"
       fill="#000000" />
    <path
       d="m1159.8171 1040.1101l33.47058 -32.887146l-0.006958008 -37.068115l-87.76831 -86.173645l-52.337036 51.424805z"
       id="path41"
       stroke-linejoin="round"
       stroke-linecap="butt"
       stroke-width="2.0"
       stroke="#000000"
       fill-rule="nonzero" />
    <path
       d="m957.2792 1330.4646l-19.809082 0l-27.105225 -27.105225l0 -119.48059l0 0l74.01953 0l0 0l0 119.48059z"
       id="path43"
       fill-rule="nonzero"
       fill="#000000" />
    <path
       d="m957.2792 1330.4646l-19.809082 0l-27.105225 -27.105225l0 -119.48059l0 0l74.01953 0l0 0l0 119.48059z"
       id="path45"
       stroke-linejoin="round"
       stroke-linecap="butt"
       stroke-width="2.0"
       stroke="#000000"
       fill-rule="nonzero" />
    <path
       d="m1370.2034 978.96826l185.89612 -185.89606l250.63306 0l185.89612 185.89606l0 247.86133l-185.89612 185.89612l-250.63306 0l-185.89612 -185.89612z"
       id="path47"
       fill-rule="nonzero"
       fill-opacity="0.0"
       fill="#000000" />
    <path
       d="m1370.2034 978.96826l185.89612 -185.89606l250.63306 0l185.89612 185.89606l0 247.86133l-185.89612 185.89612l-250.63306 0l-185.89612 -185.89612z"
       id="path49"
       stroke-linejoin="round"
       stroke-linecap="butt"
       stroke-width="24.0"
       stroke="#000000"
       fill-rule="nonzero" />
    <path
       d="m1681.416 729.03546l0 54.740112"
       id="path51"
       fill-rule="nonzero"
       fill-opacity="0.0"
       fill="#000000" />
    <path
       d="m1681.416 729.03546l0 54.740112"
       id="path53"
       stroke-linejoin="round"
       stroke-linecap="butt"
       stroke-width="24.0"
       stroke="#000000"
       fill-rule="nonzero" />
    <path
       d="m1681.416 1422.0223l0 54.740112"
       id="path55"
       fill-rule="nonzero"
       fill-opacity="0.0"
       fill="#000000" />
    <path
       d="m1681.416 1422.0223l0 54.740112"
       id="path57"
       stroke-linejoin="round"
       stroke-linecap="butt"
       stroke-width="24.0"
       stroke="#000000"
       fill-rule="nonzero" />
    <path
       d="m2053.2297 1102.8989l-54.740234 0"
       id="path59"
       fill-rule="nonzero"
       fill-opacity="0.0"
       fill="#000000" />
    <path
       d="m2053.2297 1102.8989l-54.740234 0"
       id="path61"
       stroke-linejoin="round"
       stroke-linecap="butt"
       stroke-width="24.0"
       stroke="#000000"
       fill-rule="nonzero" />
    <path
       d="m1363.8254 1102.8989l-54.740112 0"
       id="path63"
       fill-rule="nonzero"
       fill-opacity="0.0"
       fill="#000000" />
    <path
       d="m1363.8254 1102.8989l-54.740112 0"
       id="path65"
       stroke-linejoin="round"
       stroke-linecap="butt"
       stroke-width="24.0"
       stroke="#000000"
       fill-rule="nonzero" />
    <path
       d="m1578.968 1015.674l14.964478 -14.9646l87.224976 87.224915l87.224976 -87.224915l14.9646 14.9646l-87.224976 87.224915l87.224976 87.224976l-14.9646 14.9646l-87.224976 -87.224976l-87.224976 87.224976l-14.964478 -14.9646l87.22485 -87.224976z"
       id="path67"
       fill-rule="nonzero"
       fill="#000000" />
    <path
       d="m1578.968 1015.674l14.964478 -14.9646l87.224976 87.224915l87.224976 -87.224915l14.9646 14.9646l-87.224976 87.224915l87.224976 87.224976l-14.9646 14.9646l-87.224976 -87.224976l-87.224976 87.224976l-14.964478 -14.9646l87.22485 -87.224976z"
       id="path69"
       stroke-linejoin="round"
       stroke-linecap="butt"
       stroke-width="2.0"
       stroke="#000000"
       fill-rule="nonzero" />
    <path
       d="m3327.3792 1251.8398l0 241.54333l-59.05493 0l0 -241.54333z"
       id="path71"
       fill-rule="nonzero"
       fill="#000000" />
    <path
       d="m3327.3792 1251.8398l0 241.54333l-59.05493 0l0 -241.54333z"
       id="path73"
       stroke-linejoin="round"
       stroke-linecap="butt"
       stroke-width="2.0"
       stroke="#000000"
       fill-rule="nonzero" />
    <path
       d="m3148.5132 1371.6511l0 137.92126l-59.055176 0l0 -137.92126z"
       id="path75"
       fill-rule="nonzero"
       fill="#000000" />
    <path
       d="m3148.5132 1371.6511l0 137.92126l-59.055176 0l0 -137.92126z"
       id="path77"
       stroke-linejoin="round"
       stroke-linecap="butt"
       stroke-width="2.0"
       stroke="#000000"
       fill-rule="nonzero" />
    <path
       d="m3506.2454 1132.0283l0 376.34644l-59.055176 0l0 -376.34644z"
       id="path79"
       fill-rule="nonzero"
       fill="#000000" />
    <path
       d="m3506.2454 1132.0283l0 376.34644l-59.055176 0l0 -376.34644z"
       id="path81"
       stroke-linejoin="round"
       stroke-linecap="butt"
       stroke-width="2.0"
       stroke="#000000"
       fill-rule="nonzero" />
    <path
       d="m3685.1116 1012.22046l0 490.8346l-59.055176 0l0 -490.8346z"
       id="path83"
       fill-rule="nonzero"
       fill="#000000" />
    <path
       d="m3685.1116 1012.22046l0 490.8346l-59.055176 0l0 -490.8346z"
       id="path85"
       stroke-linejoin="round"
       stroke-linecap="butt"
       stroke-width="2.0"
       stroke="#000000"
       fill-rule="nonzero" />
    <path
       d="m3106.762 889.4063l41.846436 -41.846497l93.80884 93.8089l93.80908 -93.8089l41.846436 41.846497l-93.80908 93.8089l93.80908 93.80896l-41.846436 41.846436l-93.80908 -93.80896l-93.80884 93.80896l-41.846436 -41.846436l93.80884 -93.80896z"
       id="path87"
       fill-rule="nonzero"
       fill="#000000" />
    <path
       d="m3106.762 889.4063l41.846436 -41.846497l93.80884 93.8089l93.80908 -93.8089l41.846436 41.846497l-93.80908 93.8089l93.80908 93.80896l-41.846436 41.846436l-93.80908 -93.80896l-93.80884 93.80896l-41.846436 -41.846436l93.80884 -93.80896z"
       id="path89"
       stroke-linejoin="round"
       stroke-linecap="butt"
       stroke-width="2.0"
       stroke="#000000"
       fill-rule="nonzero" />
    <path
       d="m-192.36745 -90.839355l5.470352 -5.470352l7.73645 0l5.470352 5.470352l0 7.736458l-5.470352 5.470352l-7.73645 0l-5.470352 -5.470352z"
       id="path91"
       fill-rule="nonzero"
       fill="#ffffff" />
    <path
       d="m-192.36745 -90.839355l5.470352 -5.470352l7.73645 0l5.470352 5.470352l0 7.736458l-5.470352 5.470352l-7.73645 0l-5.470352 -5.470352z"
       id="path93"
       stroke-linejoin="round"
       stroke-linecap="butt"
       stroke-width="2.0"
       stroke="#000000"
       fill-rule="nonzero" />
    <path
       d="m-431.10852 -146.87775l0 119.81102l-59.055115 0l0 -119.81102z"
       id="path95"
       fill-rule="nonzero"
       fill="#cfe2f3" />
    <path
       d="m-431.10852 -146.87775l0 119.81102l-59.055115 0l0 -119.81102z"
       id="path97"
       stroke-linejoin="round"
       stroke-linecap="butt"
       stroke-width="2.0"
       stroke="#000000"
       fill-rule="nonzero" />
    <path
       d="m3924.2979 932.4055l42.351807 -40.11548l66.43555 0l51.939697 46.15747l0.7927246 -200.0l-60.624756 0l-102.1416 99.25195l0.8293457 95.12073z"
       id="path99"
       fill-rule="nonzero"
       fill="#000000" />
    <path
       d="m3924.2979 932.4055l42.351807 -40.11548l66.43555 0l51.939697 46.15747l0.7927246 -200.0l-60.624756 0l-102.1416 99.25195l0.8293457 95.12073z"
       id="path101"
       stroke-linejoin="round"
       stroke-linecap="butt"
       stroke-width="2.0"
       stroke="#000000"
       fill-rule="nonzero" />
    <path
       d="m4247.7573 934.0591l-44.427734 -42.595825l-68.51221 0l-49.543213 47.04724l-0.9580078 -200.06299l64.204834 0l98.56445 99.25195l0.671875 95.944885z"
       id="path103"
       fill-rule="nonzero"
       fill="#000000" />
    <path
       d="m4247.7573 934.0591l-44.427734 -42.595825l-68.51221 0l-49.543213 47.04724l-0.9580078 -200.06299l64.204834 0l98.56445 99.25195l0.671875 95.944885z"
       id="path105"
       stroke-linejoin="round"
       stroke-linecap="butt"
       stroke-width="2.0"
       stroke="#000000"
       fill-rule="nonzero" />
    <path
       d="m4220.4956 892.4156l73.07959 -72.786194l72.25098 71.960205"
       id="path107"
       fill-rule="nonzero"
       fill-opacity="0.0"
       fill="#000000" />
    <path
       d="m4220.4956 892.4156l73.07959 -72.786194l72.25098 71.960205"
       id="path109"
       stroke-linejoin="round"
       stroke-linecap="butt"
       stroke-width="24.0"
       stroke="#000000"
       fill-rule="nonzero" />
    <path
       d="m4220.4956 1089.2435l73.07959 -72.78613l72.25098 71.960205"
       id="path111"
       fill-rule="nonzero"
       fill-opacity="0.0"
       fill="#000000" />
    <path
       d="m4220.4956 1089.2435l73.07959 -72.78613l72.25098 71.960205"
       id="path113"
       stroke-linejoin="round"
       stroke-linecap="butt"
       stroke-width="24.0"
       stroke="#000000"
       fill-rule="nonzero" />
    <path
       d="m4220.4956 1286.0715l73.07959 -72.78613l72.25098 71.960205"
       id="path115"
       fill-rule="nonzero"
       fill-opacity="0.0"
       fill="#000000" />
    <path
       d="m4220.4956 1286.0715l73.07959 -72.78613l72.25098 71.960205"
       id="path117"
       stroke-linejoin="round"
       stroke-linecap="butt"
       stroke-width="24.0"
       stroke="#000000"
       fill-rule="nonzero" />
    <path
       d="m3798.035 892.4156l73.079834 -72.786194l72.25073 71.960205"
       id="path119"
       fill-rule="nonzero"
       fill-opacity="0.0"
       fill="#000000" />
    <path
       d="m3798.035 892.4156l73.079834 -72.786194l72.25073 71.960205"
       id="path121"
       stroke-linejoin="round"
       stroke-linecap="butt"
       stroke-width="24.0"
       stroke="#000000"
       fill-rule="nonzero" />
    <path
       d="m3798.035 1089.2435l73.079834 -72.78613l72.25073 71.960205"
       id="path123"
       fill-rule="nonzero"
       fill-opacity="0.0"
       fill="#000000" />
    <path
       d="m3798.035 1089.2435l73.079834 -72.78613l72.25073 71.960205"
       id="path125"
       stroke-linejoin="round"
       stroke-linecap="butt"
       stroke-width="24.0"
       stroke="#000000"
       fill-rule="nonzero" />
    <path
       d="m3798.035 1286.0715l73.079834 -72.78613l72.25073 71.960205"
       id="path127"
       fill-rule="nonzero"
       fill-opacity="0.0"
       fill="#000000" />
    <path
       d="m3798.035 1286.0715l73.079834 -72.78613l72.25073 71.960205"
       id="path129"
       stroke-linejoin="round"
       stroke-linecap="butt"
       stroke-width="24.0"
       stroke="#000000"
       fill-rule="nonzero" />
    <path
       d="m4091.3918 951.2231l43.6521 -43.6521l61.73535 0l43.651855 43.6521l0 357.01068l-43.651855 43.6521l-61.73535 0l-43.6521 -43.6521z"
       id="path131"
       fill-rule="nonzero"
       fill="#000000" />
    <path
       d="m4091.3918 951.2231l43.6521 -43.6521l61.73535 0l43.651855 43.6521l0 357.01068l-43.651855 43.6521l-61.73535 0l-43.6521 -43.6521z"
       id="path133"
       stroke-linejoin="round"
       stroke-linecap="butt"
       stroke-width="2.0"
       stroke="#000000"
       fill-rule="nonzero" />
    <path
       d="m3925.7444 951.2231l43.6521 -43.6521l61.735107 0l43.6521 43.6521l0 357.01068l-43.6521 43.6521l-61.735107 0l-43.6521 -43.6521z"
       id="path135"
       fill-rule="nonzero"
       fill="#000000" />
    <path
       d="m3925.7444 951.2231l43.6521 -43.6521l61.735107 0l43.6521 43.6521l0 357.01068l-43.6521 43.6521l-61.735107 0l-43.6521 -43.6521z"
       id="path137"
       stroke-linejoin="round"
       stroke-linecap="butt"
       stroke-width="2.0"
       stroke="#000000"
       fill-rule="nonzero" />
    <path
       d="m4008.568 814.84955l6.7802734 -6.7803345l9.683594 0l6.7802734 6.7803345l0 9.588989l-6.7802734 6.7803345l-9.683594 0l-6.7802734 -6.7803345z"
       id="path139"
       fill-rule="nonzero"
       fill="#ffffff" />
    <path
       d="m4008.568 814.84955l6.7802734 -6.7803345l9.683594 0l6.7802734 6.7803345l0 9.588989l-6.7802734 6.7803345l-9.683594 0l-6.7802734 -6.7803345z"
       id="path141"
       stroke-linejoin="round"
       stroke-linecap="butt"
       stroke-width="2.0"
       stroke="#000000"
       fill-rule="nonzero" />
    <path
       d="m4134.371 814.84955l6.7802734 -6.7803345l9.683105 0l6.7807617 6.7803345l0 9.588989l-6.7807617 6.7803345l-9.683105 0l-6.7802734 -6.7803345z"
       id="path143"
       fill-rule="nonzero"
       fill="#ffffff" />
    <path
       d="m4134.371 814.84955l6.7802734 -6.7803345l9.683105 0l6.7807617 6.7803345l0 9.588989l-6.7807617 6.7803345l-9.683105 0l-6.7802734 -6.7803345z"
       id="path145"
       stroke-linejoin="round"
       stroke-linecap="butt"
       stroke-width="2.0"
       stroke="#000000"
       fill-rule="nonzero" />
    <path
       d="m3978.2063 1362.9319l104.70288 104.422l105.052734 -104.62683l-64.57178 0l-39.965088 -39.8042l-39.961426 39.8042l-55.85132 0z"
       id="path147"
       fill-rule="nonzero"
       fill="#000000" />
    <path
       d="m3978.2063 1362.9319l104.70288 104.422l105.052734 -104.62683l-64.57178 0l-39.965088 -39.8042l-39.961426 39.8042l-55.85132 0z"
       id="path149"
       stroke-linejoin="round"
       stroke-linecap="butt"
       stroke-width="2.0"
       stroke="#000000"
       fill-rule="nonzero" />
    <path
       d="m4797.3604 1094.6632l7.383789 90.15149l-16.882324 4.564575l19.804688 81.857056l-17.538574 6.54541l14.693848 130.74182l-59.70752 -116.751465l20.838867 -6.253662l-36.547363 -74.203735l25.355957 -10.402954l-38.71289 -77.97034z"
       id="path151"
       fill-rule="nonzero"
       fill="#000000" />
    <path
       d="m4797.3604 1094.6632l7.383789 90.15149l-16.882324 4.564575l19.804688 81.857056l-17.538574 6.54541l14.693848 130.74182l-59.70752 -116.751465l20.838867 -6.253662l-36.547363 -74.203735l25.355957 -10.402954l-38.71289 -77.97034z"
       id="path153"
       stroke-linejoin="round"
       stroke-linecap="butt"
       stroke-width="1.0"
       stroke="#000000"
       fill-rule="nonzero" />
    <path
       d="m5029.415 1093.7427l-10.478027 89.83362l16.715332 5.159912l-22.605957 81.10437l17.303223 7.1627197l-19.17871 130.13965l63.684082 -114.56323l-20.611328 -6.988037l39.075684 -72.86243l-24.98291 -11.294922l41.36914 -76.55005z"
       id="path155"
       fill-rule="nonzero"
       fill="#000000" />
    <path
       d="m5029.415 1093.7427l-10.478027 89.83362l16.715332 5.159912l-22.605957 81.10437l17.303223 7.1627197l-19.17871 130.13965l63.684082 -114.56323l-20.611328 -6.988037l39.075684 -72.86243l-24.98291 -11.294922l41.36914 -76.55005z"
       id="path157"
       stroke-linejoin="round"
       stroke-linecap="butt"
       stroke-width="1.0"
       stroke="#000000"
       fill-rule="nonzero" />
    <path
       d="m4478.7466 891.7098l50.916504 -50.916504l72.00879 0l50.916504 50.916504l0 74.69574l-50.916504 50.916504l-72.00879 0l-50.916504 -50.916504z"
       id="path159"
       fill-rule="nonzero"
       fill="#ffffff" />
    <path
       d="m4478.7466 891.7098l50.916504 -50.916504l72.00879 0l50.916504 50.916504l0 74.69574l-50.916504 50.916504l-72.00879 0l-50.916504 -50.916504z"
       id="path161"
       stroke-linejoin="round"
       stroke-linecap="butt"
       stroke-width="24.0"
       stroke="#000000"
       fill-rule="nonzero" />
    <path
       d="m4625.1675 882.5583l103.16992 -103.16986l145.9082 0l103.16992 103.16986l0 151.35272l-103.16992 103.16992l-145.9082 0l-103.16992 -103.16992z"
       id="path163"
       fill-rule="nonzero"
       fill="#ffffff" />
    <path
       d="m4625.1675 882.5583l103.16992 -103.16986l145.9082 0l103.16992 103.16986l0 151.35272l-103.16992 103.16992l-145.9082 0l-103.16992 -103.16992z"
       id="path165"
       stroke-linejoin="round"
       stroke-linecap="butt"
       stroke-width="24.0"
       stroke="#000000"
       fill-rule="nonzero" />
    <path
       d="m4954.7373 862.1045l39.73047 -39.73059l56.188965 0l39.73047 39.73059l0 58.285645l-39.73047 39.73053l-56.188965 0l-39.73047 -39.73053z"
       id="path167"
       fill-rule="nonzero"
       fill="#ffffff" />
    <path
       d="m4954.7373 862.1045l39.73047 -39.73059l56.188965 0l39.73047 39.73059l0 58.285645l-39.73047 39.73053l-56.188965 0l-39.73047 -39.73053z"
       id="path169"
       stroke-linejoin="round"
       stroke-linecap="butt"
       stroke-width="24.0"
       stroke="#000000"
       fill-rule="nonzero" />
    <path
       d="m4954.7373 964.7613l67.16797 -67.16803l94.992676 0l67.16797 67.16803l0 98.53705l-67.16797 67.16809l-94.992676 0l-67.16797 -67.16809z"
       id="path171"
       fill-rule="nonzero"
       fill="#ffffff" />
    <path
       d="m4954.7373 964.7613l67.16797 -67.16803l94.992676 0l67.16797 67.16803l0 98.53705l-67.16797 67.16809l-94.992676 0l-67.16797 -67.16809z"
       id="path173"
       stroke-linejoin="round"
       stroke-linecap="butt"
       stroke-width="24.0"
       stroke="#000000"
       fill-rule="nonzero" />
    <path
       d="m4478.7466 1121.8013l6.1938477 -6.1934814l8.759277 0l6.1933594 6.1934814l0 9.086182l-6.1933594 6.1934814l-8.759277 0l-6.1938477 -6.1934814z"
       id="path175"
       fill-rule="nonzero"
       fill="#000000" />
    <path
       d="m4478.7466 1121.8013l6.1938477 -6.1934814l8.759277 0l6.1933594 6.1934814l0 9.086182l-6.1933594 6.1934814l-8.759277 0l-6.1938477 -6.1934814z"
       id="path177"
       stroke-linejoin="round"
       stroke-linecap="butt"
       stroke-width="2.0"
       stroke="#000000"
       fill-rule="nonzero" />
    <path
       d="m4478.7466 1299.5673l6.1938477 -6.1934814l8.759277 0l6.1933594 6.1934814l0 9.08606l-6.1933594 6.1936035l-8.759277 0l-6.1938477 -6.1936035z"
       id="path179"
       fill-rule="nonzero"
       fill="#000000" />
    <path
       d="m4478.7466 1299.5673l6.1938477 -6.1934814l8.759277 0l6.1933594 6.1934814l0 9.08606l-6.1933594 6.1936035l-8.759277 0l-6.1938477 -6.1936035z"
       id="path181"
       stroke-linejoin="round"
       stroke-linecap="butt"
       stroke-width="2.0"
       stroke="#000000"
       fill-rule="nonzero" />
    <path
       d="m4478.7466 1477.3333l6.1938477 -6.1936035l8.759277 0l6.1933594 6.1936035l0 9.08606l-6.1933594 6.1934814l-8.759277 0l-6.1938477 -6.1934814z"
       id="path183"
       fill-rule="nonzero"
       fill="#000000" />
    <path
       d="m4478.7466 1477.3333l6.1938477 -6.1936035l8.759277 0l6.1933594 6.1936035l0 9.08606l-6.1933594 6.1934814l-8.759277 0l-6.1938477 -6.1934814z"
       id="path185"
       stroke-linejoin="round"
       stroke-linecap="butt"
       stroke-width="2.0"
       stroke="#000000"
       fill-rule="nonzero" />
    <path
       d="m4604.1953 1216.9518l6.1933594 -6.1934814l8.759277 0l6.1933594 6.1934814l0 9.08606l-6.1933594 6.1936035l-8.759277 0l-6.1933594 -6.1936035z"
       id="path187"
       fill-rule="nonzero"
       fill="#000000" />
    <path
       d="m4604.1953 1216.9518l6.1933594 -6.1934814l8.759277 0l6.1933594 6.1934814l0 9.08606l-6.1933594 6.1936035l-8.759277 0l-6.1933594 -6.1936035z"
       id="path189"
       stroke-linejoin="round"
       stroke-linecap="butt"
       stroke-width="2.0"
       stroke="#000000"
       fill-rule="nonzero" />
    <path
       d="m4604.1953 1394.7178l6.1933594 -6.1934814l8.759277 0l6.1933594 6.1934814l0 9.08606l-6.1933594 6.1936035l-8.759277 0l-6.1933594 -6.1936035z"
       id="path191"
       fill-rule="nonzero"
       fill="#000000" />
    <path
       d="m4604.1953 1394.7178l6.1933594 -6.1934814l8.759277 0l6.1933594 6.1934814l0 9.08606l-6.1933594 6.1936035l-8.759277 0l-6.1933594 -6.1936035z"
       id="path193"
       stroke-linejoin="round"
       stroke-linecap="butt"
       stroke-width="2.0"
       stroke="#000000"
       fill-rule="nonzero" />
    <path
       d="m4740.2524 1477.3333l6.1933594 -6.1936035l8.759277 0l6.1933594 6.1936035l0 9.08606l-6.1933594 6.1934814l-8.759277 0l-6.1933594 -6.1934814z"
       id="path195"
       fill-rule="nonzero"
       fill="#000000" />
    <path
       d="m4740.2524 1477.3333l6.1933594 -6.1936035l8.759277 0l6.1933594 6.1936035l0 9.08606l-6.1933594 6.1934814l-8.759277 0l-6.1933594 -6.1934814z"
       id="path197"
       stroke-linejoin="round"
       stroke-linecap="butt"
       stroke-width="2.0"
       stroke="#000000"
       fill-rule="nonzero" />
    <path
       d="m4924.917 1216.9518l6.1933594 -6.1934814l8.759277 0l6.1933594 6.1934814l0 9.08606l-6.1933594 6.1936035l-8.759277 0l-6.1933594 -6.1936035z"
       id="path199"
       fill-rule="nonzero"
       fill="#000000" />
    <path
       d="m4924.917 1216.9518l6.1933594 -6.1934814l8.759277 0l6.1933594 6.1934814l0 9.08606l-6.1933594 6.1936035l-8.759277 0l-6.1933594 -6.1936035z"
       id="path201"
       stroke-linejoin="round"
       stroke-linecap="butt"
       stroke-width="2.0"
       stroke="#000000"
       fill-rule="nonzero" />
    <path
       d="m4924.917 1394.7178l6.1933594 -6.1934814l8.759277 0l6.1933594 6.1934814l0 9.08606l-6.1933594 6.1936035l-8.759277 0l-6.1933594 -6.1936035z"
       id="path203"
       fill-rule="nonzero"
       fill="#000000" />
    <path
       d="m4924.917 1394.7178l6.1933594 -6.1934814l8.759277 0l6.1933594 6.1934814l0 9.08606l-6.1933594 6.1936035l-8.759277 0l-6.1933594 -6.1936035z"
       id="path205"
       stroke-linejoin="round"
       stroke-linecap="butt"
       stroke-width="2.0"
       stroke="#000000"
       fill-rule="nonzero" />
    <path
       d="m5096.6636 1299.5673l6.1933594 -6.1934814l8.759277 0l6.1933594 6.1934814l0 9.08606l-6.1933594 6.1936035l-8.759277 0l-6.1933594 -6.1936035z"
       id="path207"
       fill-rule="nonzero"
       fill="#000000" />
    <path
       d="m5096.6636 1299.5673l6.1933594 -6.1934814l8.759277 0l6.1933594 6.1934814l0 9.08606l-6.1933594 6.1936035l-8.759277 0l-6.1933594 -6.1936035z"
       id="path209"
       stroke-linejoin="round"
       stroke-linecap="butt"
       stroke-width="2.0"
       stroke="#000000"
       fill-rule="nonzero" />
    <path
       d="m5096.6636 1477.3333l6.1933594 -6.1936035l8.759277 0l6.1933594 6.1936035l0 9.08606l-6.1933594 6.1934814l-8.759277 0l-6.1933594 -6.1934814z"
       id="path211"
       fill-rule="nonzero"
       fill="#000000" />
    <path
       d="m5096.6636 1477.3333l6.1933594 -6.1936035l8.759277 0l6.1933594 6.1936035l0 9.08606l-6.1933594 6.1934814l-8.759277 0l-6.1933594 -6.1934814z"
       id="path213"
       stroke-linejoin="round"
       stroke-linecap="butt"
       stroke-width="2.0"
       stroke="#000000"
       fill-rule="nonzero" />
    <path
       d="m4612.6274 873.3675l81.31348 0l231.31006 -9.544617l77.09961 0l76.0 17.049316l0.092285156 62.503296l-88.688965 115.05444l-113.998535 -0.12365723l-225.74756 -53.000916l-66.25293 0z"
       id="path215"
       fill-rule="nonzero"
       fill="#ffffff" />
    <path
       style="fill:#000000;fill-opacity:1"
       d="M 341.16949,-1.4205506 -4.6742604,748.98569 739.07574,742.29819 398.91949,-1.4205506 l -57.75,0 z m 25.4375,38.4687496 1.1875,0 0,15.937499 -1.1875,0 0,-15.937499 z m -0.40625,44.312499 2,0 0,24.500002 -2,0 0,-24.500002 z m -1,52.843752 3.96875,0 0,31.68749 -3.96875,0 0,-31.68749 z m -1.09375,64.46874 7.125,0 0,43.875 -7.125,0 0,-43.875 z m -1.9375,98.78125 11,0 0,59.0625 -11,0 0,-59.0625 z m -1.90625,140.5625 14.8125,0 0,69.28125 -14.8125,0 0,-69.28125 z m -1.9375,180.1875 18.6875,0 0,77.4375 -18.6875,0 0,-77.4375 z"
       id="path219"
       inkscape:connector-curvature="0" />
    <path
       d="m808.0 1112.0l384.0 0l0 48.0l-384.0 0z"
       id="path249"
       fill-rule="nonzero"
       fill-opacity="0.0"
       fill="#000000" />
    <path
       d="m817.5781 1135.9825l1.65625 -0.265625q0.140625 1.0 0.765625 1.53125q0.640625 0.515625 1.78125 0.515625q1.15625 0 1.703125 -0.46875q0.5625 -0.46875 0.5625 -1.09375q0 -0.5625 -0.484375 -0.890625q-0.34375 -0.21875 -1.703125 -0.5625q-1.84375 -0.46875 -2.5625 -0.796875q-0.703125 -0.34375 -1.078125 -0.9375q-0.359375 -0.609375 -0.359375 -1.328125q0 -0.65625 0.296875 -1.21875q0.3125 -0.5625 0.828125 -0.9375q0.390625 -0.28125 1.0625 -0.484375q0.671875 -0.203125 1.4375 -0.203125q1.171875 0 2.046875 0.34375q0.875 0.328125 1.28125 0.90625q0.421875 0.5625 0.578125 1.515625l-1.625 0.21875q-0.109375 -0.75 -0.65625 -1.171875q-0.53125 -0.4375 -1.5 -0.4375q-1.15625 0 -1.640625 0.390625q-0.484375 0.375 -0.484375 0.875q0 0.328125 0.203125 0.59375q0.203125 0.265625 0.640625 0.4375q0.25 0.09375 1.46875 0.4375q1.765625 0.46875 2.46875 0.765625q0.703125 0.296875 1.09375 0.875q0.40625 0.578125 0.40625 1.4375q0 0.828125 -0.484375 1.578125q-0.484375 0.734375 -1.40625 1.140625q-0.921875 0.390625 -2.078125 0.390625q-1.921875 0 -2.9375 -0.796875q-1.0 -0.796875 -1.28125 -2.359375zm16.75 -0.234375l1.71875 0.21875q-0.40625 1.5 -1.515625 2.34375q-1.09375 0.828125 -2.8125 0.828125q-2.15625 0 -3.421875 -1.328125q-1.265625 -1.328125 -1.265625 -3.734375q0 -2.484375 1.265625 -3.859375q1.28125 -1.375 3.328125 -1.375q1.984375 0 3.234375 1.34375q1.25 1.34375 1.25 3.796875q0 0.140625 -0.015625 0.4375l-7.34375 0q0.09375 1.625 0.921875 2.484375q0.828125 0.859375 2.0625 0.859375q0.90625 0 1.546875 -0.46875q0.65625 -0.484375 1.046875 -1.546875zm-5.484375 -2.703125l5.5 0q-0.109375 -1.234375 -0.625 -1.859375q-0.796875 -0.96875 -2.078125 -0.96875q-1.140625 0 -1.9375 0.78125q-0.78125 0.765625 -0.859375 2.046875zm20.730896 4.65625q-0.9375 0.796875 -1.796875 1.125q-0.859375 0.3125 -1.84375 0.3125q-1.609375 0 -2.484375 -0.78125q-0.875 -0.796875 -0.875 -2.03125q0 -0.734375 0.328125 -1.328125q0.328125 -0.59375 0.859375 -0.953125q0.53125 -0.359375 1.203125 -0.546875q0.5 -0.140625 1.484375 -0.25q2.03125 -0.25 2.984375 -0.578125q0 -0.34375 0 -0.4375q0 -1.015625 -0.46875 -1.4375q-0.640625 -0.5625 -1.90625 -0.5625q-1.171875 0 -1.734375 0.40625q-0.5625 0.40625 -0.828125 1.46875l-1.640625 -0.234375q0.234375 -1.046875 0.734375 -1.6875q0.515625 -0.640625 1.46875 -0.984375q0.96875 -0.359375 2.25 -0.359375q1.265625 0 2.046875 0.296875q0.78125 0.296875 1.15625 0.75q0.375 0.453125 0.515625 1.140625q0.09375 0.421875 0.09375 1.53125l0 2.234375q0 2.328125 0.09375 2.953125q0.109375 0.609375 0.4375 1.171875l-1.75 0q-0.265625 -0.515625 -0.328125 -1.21875zm-0.140625 -3.71875q-0.90625 0.359375 -2.734375 0.625q-1.03125 0.140625 -1.453125 0.328125q-0.421875 0.1875 -0.65625 0.546875q-0.234375 0.359375 -0.234375 0.796875q0 0.671875 0.5 1.125q0.515625 0.4375 1.484375 0.4375q0.96875 0 1.71875 -0.421875q0.75 -0.4375 1.109375 -1.15625q0.265625 -0.578125 0.265625 -1.671875l0 -0.609375zm4.0788574 4.9375l0 -9.859375l1.5 0l0 1.40625q1.09375 -1.625 3.140625 -1.625q0.890625 0 1.640625 0.328125q0.75 0.3125 1.109375 0.84375q0.375 0.515625 0.53125 1.21875q0.09375 0.46875 0.09375 1.625l0 6.0625l-1.671875 0l0 -6.0q0 -1.015625 -0.203125 -1.515625q-0.1875 -0.515625 -0.6875 -0.8125q-0.5 -0.296875 -1.171875 -0.296875q-1.0625 0 -1.84375 0.671875q-0.765625 0.671875 -0.765625 2.578125l0 5.375l-1.671875 0zm16.766296 0l0 -1.25q-0.9375 1.46875 -2.75 1.46875q-1.171875 0 -2.171875 -0.640625q-0.984375 -0.65625 -1.53125 -1.8125q-0.53125 -1.171875 -0.53125 -2.6875q0 -1.46875 0.484375 -2.671875q0.5 -1.203125 1.46875 -1.84375q0.984375 -0.640625 2.203125 -0.640625q0.890625 0 1.578125 0.375q0.703125 0.375 1.140625 0.984375l0 -4.875l1.65625 0l0 13.59375l-1.546875 0zm-5.28125 -4.921875q0 1.890625 0.796875 2.828125q0.8125 0.9375 1.890625 0.9375q1.09375 0 1.859375 -0.890625q0.765625 -0.890625 0.765625 -2.734375q0 -2.015625 -0.78125 -2.953125q-0.78125 -0.953125 -1.921875 -0.953125q-1.109375 0 -1.859375 0.90625q-0.75 0.90625 -0.75 2.859375zm9.250732 4.921875l0 -9.859375l1.5 0l0 1.5q0.578125 -1.046875 1.0625 -1.375q0.484375 -0.34375 1.078125 -0.34375q0.84375 0 1.71875 0.546875l-0.578125 1.546875q-0.609375 -0.359375 -1.234375 -0.359375q-0.546875 0 -0.984375 0.328125q-0.421875 0.328125 -0.609375 0.90625q-0.28125 0.890625 -0.28125 1.953125l0 5.15625l-1.671875 0zm12.6658325 -1.21875q-0.9375 0.796875 -1.796875 1.125q-0.859375 0.3125 -1.84375 0.3125q-1.609375 0 -2.484375 -0.78125q-0.875 -0.796875 -0.875 -2.03125q0 -0.734375 0.328125 -1.328125q0.328125 -0.59375 0.859375 -0.953125q0.53125 -0.359375 1.203125 -0.546875q0.5 -0.140625 1.484375 -0.25q2.03125 -0.25 2.984375 -0.578125q0 -0.34375 0 -0.4375q0 -1.015625 -0.46875 -1.4375q-0.640625 -0.5625 -1.90625 -0.5625q-1.171875 0 -1.734375 0.40625q-0.5625 0.40625 -0.828125 1.46875l-1.640625 -0.234375q0.234375 -1.046875 0.734375 -1.6875q0.515625 -0.640625 1.46875 -0.984375q0.96875 -0.359375 2.25 -0.359375q1.265625 0 2.046875 0.296875q0.78125 0.296875 1.15625 0.75q0.375 0.453125 0.515625 1.140625q0.09375 0.421875 0.09375 1.53125l0 2.234375q0 2.328125 0.09375 2.953125q0.109375 0.609375 0.4375 1.171875l-1.75 0q-0.265625 -0.515625 -0.328125 -1.21875zm-0.140625 -3.71875q-0.90625 0.359375 -2.734375 0.625q-1.03125 0.140625 -1.453125 0.328125q-0.421875 0.1875 -0.65625 0.546875q-0.234375 0.359375 -0.234375 0.796875q0 0.671875 0.5 1.125q0.515625 0.4375 1.484375 0.4375q0.96875 0 1.71875 -0.421875q0.75 -0.4375 1.109375 -1.15625q0.265625 -0.578125 0.265625 -1.671875l0 -0.609375zm9.277771 -6.75l0 -1.90625l1.671875 0l0 1.90625l-1.671875 0zm0 11.6875l0 -9.859375l1.671875 0l0 9.859375l-1.671875 0zm3.4572754 -2.9375l1.65625 -0.265625q0.140625 1.0 0.765625 1.53125q0.640625 0.515625 1.78125 0.515625q1.15625 0 1.703125 -0.46875q0.5625 -0.46875 0.5625 -1.09375q0 -0.5625 -0.484375 -0.890625q-0.34375 -0.21875 -1.703125 -0.5625q-1.84375 -0.46875 -2.5625 -0.796875q-0.703125 -0.34375 -1.078125 -0.9375q-0.359375 -0.609375 -0.359375 -1.328125q0 -0.65625 0.296875 -1.21875q0.3125 -0.5625 0.828125 -0.9375q0.390625 -0.28125 1.0625 -0.484375q0.671875 -0.203125 1.4375 -0.203125q1.171875 0 2.046875 0.34375q0.875 0.328125 1.28125 0.90625q0.421875 0.5625 0.578125 1.515625l-1.625 0.21875q-0.109375 -0.75 -0.65625 -1.171875q-0.53125 -0.4375 -1.5 -0.4375q-1.15625 0 -1.640625 0.390625q-0.484375 0.375 -0.484375 0.875q0 0.328125 0.203125 0.59375q0.203125 0.265625 0.640625 0.4375q0.25 0.09375 1.46875 0.4375q1.765625 0.46875 2.46875 0.765625q0.703125 0.296875 1.09375 0.875q0.40625 0.578125 0.40625 1.4375q0 0.828125 -0.484375 1.578125q-0.484375 0.734375 -1.40625 1.140625q-0.921875 0.390625 -2.078125 0.390625q-1.921875 0 -2.9375 -0.796875q-1.0 -0.796875 -1.28125 -2.359375zm13.65625 1.4375l0.234375 1.484375q-0.703125 0.140625 -1.265625 0.140625q-0.90625 0 -1.40625 -0.28125q-0.5 -0.296875 -0.703125 -0.75q-0.203125 -0.46875 -0.203125 -1.984375l0 -5.65625l-1.234375 0l0 -1.3125l1.234375 0l0 -2.4375l1.65625 -1.0l0 3.4375l1.6875 0l0 1.3125l-1.6875 0l0 5.75q0 0.71875 0.078125 0.921875q0.09375 0.203125 0.296875 0.328125q0.203125 0.125 0.578125 0.125q0.265625 0 0.734375 -0.078125zm7.9645996 0.28125q-0.9375 0.796875 -1.796875 1.125q-0.859375 0.3125 -1.84375 0.3125q-1.609375 0 -2.484375 -0.78125q-0.875 -0.796875 -0.875 -2.03125q0 -0.734375 0.328125 -1.328125q0.328125 -0.59375 0.859375 -0.953125q0.53125 -0.359375 1.203125 -0.546875q0.5 -0.140625 1.484375 -0.25q2.03125 -0.25 2.984375 -0.578125q0 -0.34375 0 -0.4375q0 -1.015625 -0.46875 -1.4375q-0.640625 -0.5625 -1.90625 -0.5625q-1.171875 0 -1.734375 0.40625q-0.5625 0.40625 -0.828125 1.46875l-1.640625 -0.234375q0.234375 -1.046875 0.734375 -1.6875q0.515625 -0.640625 1.46875 -0.984375q0.96875 -0.359375 2.25 -0.359375q1.265625 0 2.046875 0.296875q0.78125 0.296875 1.15625 0.75q0.375 0.453125 0.515625 1.140625q0.09375 0.421875 0.09375 1.53125l0 2.234375q0 2.328125 0.09375 2.953125q0.109375 0.609375 0.4375 1.171875l-1.75 0q-0.265625 -0.515625 -0.328125 -1.21875zm-0.140625 -3.71875q-0.90625 0.359375 -2.734375 0.625q-1.03125 0.140625 -1.453125 0.328125q-0.421875 0.1875 -0.65625 0.546875q-0.234375 0.359375 -0.234375 0.796875q0 0.671875 0.5 1.125q0.515625 0.4375 1.484375 0.4375q0.96875 0 1.71875 -0.421875q0.75 -0.4375 1.109375 -1.15625q0.265625 -0.578125 0.265625 -1.671875l0 -0.609375zm-4.984375 -6.84375l0 -1.90625l1.75 0l0 1.90625l-1.75 0zm3.46875 0l0 -1.90625l1.734375 0l0 1.90625l-1.734375 0zm5.5632324 11.78125l0 -13.59375l1.671875 0l0 13.59375l-1.671875 0zm4.1447754 0l0 -13.59375l1.671875 0l0 13.59375l-1.671875 0zm10.926086 -3.171875l1.71875 0.21875q-0.40625 1.5 -1.515625 2.34375q-1.09375 0.828125 -2.8125 0.828125q-2.15625 0 -3.421875 -1.328125q-1.265625 -1.328125 -1.265625 -3.734375q0 -2.484375 1.265625 -3.859375q1.28125 -1.375 3.328125 -1.375q1.984375 0 3.234375 1.34375q1.25 1.34375 1.25 3.796875q0 0.140625 -0.015625 0.4375l-7.34375 0q0.09375 1.625 0.921875 2.484375q0.828125 0.859375 2.0625 0.859375q0.90625 0 1.546875 -0.46875q0.65625 -0.484375 1.046875 -1.546875zm-5.484375 -2.703125l5.5 0q-0.109375 -1.234375 -0.625 -1.859375q-0.796875 -0.96875 -2.078125 -0.96875q-1.140625 0 -1.9375 0.78125q-0.78125 0.765625 -0.859375 2.046875zm12.766357 4.375l0.234375 1.484375q-0.703125 0.140625 -1.265625 0.140625q-0.90625 0 -1.40625 -0.28125q-0.5 -0.296875 -0.703125 -0.75q-0.203125 -0.46875 -0.203125 -1.984375l0 -5.65625l-1.234375 0l0 -1.3125l1.234375 0l0 -2.4375l1.65625 -1.0l0 3.4375l1.6875 0l0 1.3125l-1.6875 0l0 5.75q0 0.71875 0.078125 0.921875q0.09375 0.203125 0.296875 0.328125q0.203125 0.125 0.578125 0.125q0.265625 0 0.734375 -0.078125z"
       id="path251"
       fill-rule="nonzero"
       fill="#000000" />
  </g>
</svg>
